<svg width="18" height="19" viewBox="0 0 18 19" fill="none" xmlns="http://www.w3.org/2000/svg">
<path d="M8.94505 11.933C8.84853 11.9336 8.75286 11.9151 8.66351 11.8786C8.57417 11.8421 8.4929 11.7883 8.42438 11.7204L5.49105 8.78703C5.35296 8.64894 5.27538 8.46165 5.27538 8.26636C5.27538 8.07107 5.35296 7.88379 5.49105 7.7457C5.62914 7.60761 5.81643 7.53003 6.01171 7.53003C6.207 7.53003 6.39429 7.60761 6.53238 7.7457L8.94505 10.1657L11.3577 7.75303C11.498 7.63289 11.6785 7.57011 11.863 7.57724C12.0476 7.58437 12.2227 7.66088 12.3533 7.79148C12.4839 7.92209 12.5604 8.09716 12.5675 8.28172C12.5746 8.46629 12.5119 8.64674 12.3917 8.78703L9.45838 11.7204C9.32179 11.8558 9.13743 11.9322 8.94505 11.933Z" fill="#999999"/>
</svg>
