<svg width="25" height="25" viewBox="0 0 25 25" fill="none" xmlns="http://www.w3.org/2000/svg">
<g clip-path="url(#clip0_0_343)">
<path fill-rule="evenodd" clip-rule="evenodd" d="M3.27905 11.5283C3.27905 6.38461 7.44882 2.21484 12.5925 2.21484C17.7362 2.21484 21.906 6.38461 21.906 11.5283C21.906 16.672 17.7362 20.8417 12.5925 20.8417C7.44882 20.8417 3.27905 16.672 3.27905 11.5283ZM12.5925 0.521484C6.51361 0.521484 1.58569 5.4494 1.58569 11.5283C1.58569 17.6072 6.51361 22.5351 12.5925 22.5351C18.6714 22.5351 23.5993 17.6072 23.5993 11.5283C23.5993 5.4494 18.6714 0.521484 12.5925 0.521484ZM12.5215 15.2818L18.4037 9.18574L16.9414 7.77477L11.6931 13.2139L8.13597 10.449L6.88893 12.0534L11.1669 15.3785L11.8877 15.9388L12.5215 15.2818Z" fill="#F73308"/>
</g>
<defs>
<clipPath id="clip0_0_343">
<rect width="24.3843" height="24.3843" fill="white" transform="translate(0.400391 0.352173)"/>
</clipPath>
</defs>
</svg>
