<svg width="150" height="49" viewBox="0 0 150 49" fill="none" xmlns="http://www.w3.org/2000/svg">
<path d="M1.36219 10.5702C1.36219 9.61797 1.57483 8.76743 2.0001 8.01859C2.43461 7.2605 3.02167 6.67344 3.76127 6.25742C4.51011 5.83215 5.34678 5.61951 6.27128 5.61951C7.35295 5.61951 8.30056 5.89686 9.11412 6.45156C9.92768 7.00626 10.4962 7.7736 10.8198 8.75357H8.58716C8.36527 8.29132 8.05095 7.94463 7.64417 7.7135C7.24663 7.48238 6.78438 7.36682 6.25742 7.36682C5.69347 7.36682 5.18962 7.50087 4.74586 7.76897C4.31135 8.02783 3.96928 8.39763 3.71967 8.87837C3.4793 9.35911 3.35911 9.92306 3.35911 10.5702C3.35911 11.2081 3.4793 11.7721 3.71967 12.262C3.96928 12.7428 4.31135 13.1172 4.74586 13.3853C5.18962 13.6442 5.69347 13.7736 6.25742 13.7736C6.78438 13.7736 7.24663 13.658 7.64417 13.4269C8.05095 13.1865 8.36527 12.8352 8.58716 12.373H10.8198C10.4962 13.3622 9.92768 14.1342 9.11412 14.6889C8.30981 15.2343 7.36219 15.507 6.27128 15.507C5.34678 15.507 4.51011 15.299 3.76127 14.883C3.02167 14.4577 2.43461 13.8707 2.0001 13.1218C1.57483 12.373 1.36219 11.5224 1.36219 10.5702ZM15.8895 15.5486C15.1499 15.5486 14.4842 15.3868 13.8926 15.0633C13.3009 14.7305 12.834 14.2636 12.4919 13.6627C12.1591 13.0617 11.9927 12.3684 11.9927 11.5825C11.9927 10.7967 12.1637 10.1033 12.5058 9.50241C12.8571 8.90149 13.3332 8.43924 13.9342 8.11566C14.5351 7.78284 15.2053 7.61643 15.9449 7.61643C16.6845 7.61643 17.3548 7.78284 17.9557 8.11566C18.5567 8.43924 19.0281 8.90149 19.3702 9.50241C19.7215 10.1033 19.8972 10.7967 19.8972 11.5825C19.8972 12.3684 19.7169 13.0617 19.3563 13.6627C19.005 14.2636 18.5243 14.7305 17.9141 15.0633C17.3132 15.3868 16.6383 15.5486 15.8895 15.5486ZM15.8895 13.8568C16.2408 13.8568 16.569 13.7736 16.8741 13.6072C17.1884 13.4315 17.438 13.1727 17.6229 12.8306C17.8078 12.4885 17.9003 12.0725 17.9003 11.5825C17.9003 10.8522 17.7061 10.2929 17.3178 9.90457C16.9388 9.50703 16.4719 9.30827 15.9172 9.30827C15.3625 9.30827 14.8956 9.50703 14.5166 9.90457C14.1468 10.2929 13.9619 10.8522 13.9619 11.5825C13.9619 12.3129 14.1422 12.8768 14.5027 13.2744C14.8725 13.6627 15.3348 13.8568 15.8895 13.8568ZM25.5786 7.6303C26.4939 7.6303 27.2335 7.92152 27.7974 8.50395C28.3614 9.07714 28.6433 9.88146 28.6433 10.9169V15.4238H26.7019V11.1804C26.7019 10.5702 26.5493 10.1033 26.2443 9.77976C25.9392 9.44694 25.5232 9.28053 24.9962 9.28053C24.46 9.28053 24.0347 9.44694 23.7204 9.77976C23.4153 10.1033 23.2627 10.5702 23.2627 11.1804V15.4238H21.3213V7.74124H23.2627V8.6981C23.5216 8.36528 23.8498 8.10642 24.2473 7.92152C24.6541 7.72737 25.0979 7.6303 25.5786 7.6303ZM34.0119 9.336H32.6667V15.4238H30.6976V9.336H29.8239V7.74124H30.6976V7.35295C30.6976 6.40996 30.9657 5.71659 31.5019 5.27283C32.0381 4.82907 32.847 4.62105 33.9287 4.64879V6.28515C33.4572 6.27591 33.129 6.35449 32.9441 6.5209C32.7592 6.68731 32.6667 6.98777 32.6667 7.42229V7.74124H34.0119V9.336ZM38.6814 15.5486C37.9418 15.5486 37.2762 15.3868 36.6845 15.0633C36.0928 14.7305 35.626 14.2636 35.2839 13.6627C34.9511 13.0617 34.7847 12.3684 34.7847 11.5825C34.7847 10.7967 34.9557 10.1033 35.2978 9.50241C35.6491 8.90149 36.1252 8.43924 36.7261 8.11566C37.3271 7.78284 37.9973 7.61643 38.7369 7.61643C39.4765 7.61643 40.1468 7.78284 40.7477 8.11566C41.3486 8.43924 41.8201 8.90149 42.1622 9.50241C42.5135 10.1033 42.6891 10.7967 42.6891 11.5825C42.6891 12.3684 42.5089 13.0617 42.1483 13.6627C41.797 14.2636 41.3163 14.7305 40.7061 15.0633C40.1052 15.3868 39.4303 15.5486 38.6814 15.5486ZM38.6814 13.8568C39.0328 13.8568 39.361 13.7736 39.666 13.6072C39.9804 13.4315 40.23 13.1727 40.4149 12.8306C40.5998 12.4885 40.6922 12.0725 40.6922 11.5825C40.6922 10.8522 40.4981 10.2929 40.1098 9.90457C39.7308 9.50703 39.2639 9.30827 38.7092 9.30827C38.1545 9.30827 37.6876 9.50703 37.3086 9.90457C36.9388 10.2929 36.7539 10.8522 36.7539 11.5825C36.7539 12.3129 36.9341 12.8768 37.2947 13.2744C37.6645 13.6627 38.1267 13.8568 38.6814 13.8568ZM46.0547 8.93384C46.3043 8.52706 46.6279 8.20811 47.0254 7.97699C47.4322 7.74586 47.8945 7.6303 48.4122 7.6303V9.66882H47.8991C47.2889 9.66882 46.8267 9.81212 46.5124 10.0987C46.2073 10.3853 46.0547 10.8845 46.0547 11.5964V15.4238H44.1133V7.74124H46.0547V8.93384ZM51.9803 9.336V13.0525C51.9803 13.3113 52.0404 13.5009 52.1605 13.6211C52.29 13.732 52.5026 13.7875 52.7984 13.7875H53.6998V15.4238H52.4795C50.8431 15.4238 50.0249 14.6288 50.0249 13.0386V9.336H49.1097V7.74124H50.0249V5.84139H51.9803V7.74124H53.6998V9.336H51.9803Z" fill="#909090"/>
<g clip-path="url(#clip0_0_215)">
<path d="M14.9113 42.5925L15.6144 44.2005C15.6144 44.2005 18.7783 44.9145 18.7783 46.6126C18.7783 47.8186 17.3721 47.8186 17.3721 47.8186H13.6223L11.7767 46.7292" stroke="#6D2E93" stroke-width="1.6" stroke-linecap="round" stroke-linejoin="round"/>
<path d="M10.6937 42.5925L9.99059 44.2005C9.99059 44.2005 6.82672 44.9145 6.82672 46.6126C6.82672 47.8186 8.23288 47.8186 8.23288 47.8186H9.932L11.7776 46.7292L14.0333 45.204" stroke="#6D2E93" stroke-width="1.6" stroke-linecap="round" stroke-linejoin="round"/>
<path d="M5.41986 43.3972C5.41986 43.3972 7.17757 42.9953 8.23219 42.5932C9.28682 36.9651 12.4507 37.3671 12.8022 37.3671C13.1538 37.3671 16.3176 36.9651 17.3723 42.5932C18.4269 42.9953 20.1846 43.3972 20.1846 43.3972" stroke="#6D2E93" stroke-width="1.6" stroke-linecap="round" stroke-linejoin="round"/>
<path d="M12.8016 35.6163C13.7077 35.6163 14.4421 34.8359 14.4421 33.8732C14.4421 32.9105 13.7077 32.1301 12.8016 32.1301C11.8955 32.1301 11.1611 32.9105 11.1611 33.8732C11.1611 34.8359 11.8955 35.6163 12.8016 35.6163Z" stroke="#6D2E93" stroke-width="1.6" stroke-linecap="round" stroke-linejoin="round"/>
</g>
<path d="M26.3899 37.7474C26.3899 36.8044 26.6072 35.9585 27.0417 35.2097C27.4855 34.4608 28.0818 33.8784 28.8306 33.4624C29.5887 33.0371 30.4161 32.8244 31.3129 32.8244C32.3391 32.8244 33.2497 33.0787 34.0448 33.5872C34.8491 34.0864 35.4315 34.7983 35.7921 35.7228H33.8922C33.6426 35.2143 33.2959 34.8352 32.8522 34.5856C32.4084 34.336 31.8953 34.2112 31.3129 34.2112C30.675 34.2112 30.1064 34.3545 29.6072 34.6411C29.108 34.9277 28.715 35.3391 28.4284 35.8753C28.1511 36.4115 28.0124 37.0355 28.0124 37.7474C28.0124 38.4593 28.1511 39.0833 28.4284 39.6195C28.715 40.1557 29.108 40.5717 29.6072 40.8676C30.1064 41.1542 30.675 41.2975 31.3129 41.2975C31.8953 41.2975 32.4084 41.1727 32.8522 40.9231C33.2959 40.6734 33.6426 40.2944 33.8922 39.7859H35.7921C35.4315 40.7104 34.8491 41.4223 34.0448 41.9215C33.2497 42.4207 32.3391 42.6704 31.3129 42.6704C30.4069 42.6704 29.5795 42.4624 28.8306 42.0463C28.0818 41.6211 27.4855 41.034 27.0417 40.2852C26.6072 39.5363 26.3899 38.6904 26.3899 37.7474ZM40.9569 42.712C40.2357 42.712 39.584 42.5502 39.0015 42.2266C38.4191 41.8938 37.9615 41.4315 37.6287 40.8399C37.2958 40.2389 37.1294 39.5456 37.1294 38.7597C37.1294 37.9832 37.3005 37.2944 37.6425 36.6935C37.9846 36.0926 38.4515 35.6303 39.0431 35.3067C39.6348 34.9832 40.2958 34.8214 41.0262 34.8214C41.7565 34.8214 42.4176 34.9832 43.0092 35.3067C43.6009 35.6303 44.0678 36.0926 44.4099 36.6935C44.7519 37.2944 44.923 37.9832 44.923 38.7597C44.923 39.5363 44.7473 40.2251 44.396 40.826C44.0447 41.4269 43.5639 41.8938 42.9538 42.2266C42.3529 42.5502 41.6872 42.712 40.9569 42.712ZM40.9569 41.3391C41.3636 41.3391 41.7427 41.242 42.094 41.0479C42.4545 40.8537 42.7458 40.5625 42.9676 40.1742C43.1895 39.7859 43.3005 39.3144 43.3005 38.7597C43.3005 38.205 43.1941 37.7382 42.9815 37.3591C42.7689 36.9708 42.4869 36.6796 42.1356 36.4855C41.7843 36.2913 41.4052 36.1942 40.9985 36.1942C40.5917 36.1942 40.2126 36.2913 39.8613 36.4855C39.5193 36.6796 39.2465 36.9708 39.0431 37.3591C38.8398 37.7382 38.7381 38.205 38.7381 38.7597C38.7381 39.5825 38.9461 40.2204 39.3621 40.6734C39.7874 41.1172 40.319 41.3391 40.9569 41.3391ZM47.8864 41.2975H51.3532V42.5872H46.0559V41.2975L49.5366 36.2358H46.0559V34.9462H51.3532V36.2358L47.8864 41.2975ZM59.8915 34.9462L55.2043 46.1788H53.5679L55.1211 42.4624L52.1118 34.9462H53.873L56.0225 40.7705L58.2551 34.9462H59.8915ZM67.8625 42.6842C67.2153 42.6842 66.6329 42.5733 66.1152 42.3514C65.5975 42.1203 65.1907 41.7967 64.8949 41.3807C64.599 40.9647 64.4511 40.4793 64.4511 39.9246H66.1429C66.1799 40.3406 66.3417 40.6827 66.6283 40.9508C66.9241 41.2189 67.3355 41.353 67.8625 41.353C68.4079 41.353 68.8332 41.2235 69.1383 40.9647C69.4434 40.6966 69.5959 40.3545 69.5959 39.9385C69.5959 39.6149 69.4989 39.3514 69.3047 39.148C69.1198 38.9446 68.8841 38.7875 68.5975 38.6765C68.3201 38.5656 67.9318 38.4454 67.4326 38.316C66.8039 38.1496 66.2908 37.9832 65.8933 37.8167C65.505 37.6411 65.1722 37.373 64.8949 37.0124C64.6175 36.6519 64.4788 36.1711 64.4788 35.5702C64.4788 35.0155 64.6175 34.5301 64.8949 34.1141C65.1722 33.6981 65.5605 33.3791 66.0597 33.1573C66.559 32.9354 67.1368 32.8244 67.7932 32.8244C68.7269 32.8244 69.4896 33.0602 70.0813 33.5317C70.6822 33.9939 71.015 34.6318 71.0798 35.4454H69.3324C69.3047 35.0941 69.1383 34.7936 68.8332 34.544C68.5281 34.2944 68.126 34.1696 67.6267 34.1696C67.1737 34.1696 66.8039 34.2852 66.5173 34.5163C66.2308 34.7474 66.0875 35.0802 66.0875 35.5147C66.0875 35.8106 66.1753 36.0556 66.3509 36.2497C66.5358 36.4346 66.767 36.5825 67.0443 36.6935C67.3217 36.8044 67.7007 36.9246 68.1814 37.054C68.8194 37.2297 69.3371 37.4053 69.7346 37.581C70.1414 37.7566 70.4834 38.0294 70.7608 38.3992C71.0474 38.7597 71.1907 39.2451 71.1907 39.8553C71.1907 40.3452 71.0566 40.8075 70.7885 41.242C70.5297 41.6765 70.146 42.0278 69.6375 42.2959C69.1383 42.5548 68.5466 42.6842 67.8625 42.6842ZM80.0592 38.5795C80.0592 38.866 80.0407 39.1249 80.0037 39.356H74.1655C74.2117 39.9662 74.4382 40.4562 74.845 40.826C75.2518 41.1958 75.751 41.3807 76.3427 41.3807C77.1932 41.3807 77.7941 41.0248 78.1455 40.3129H79.8512C79.62 41.0155 79.1994 41.5933 78.5892 42.0463C77.9883 42.4901 77.2394 42.712 76.3427 42.712C75.6123 42.712 74.9559 42.5502 74.3735 42.2266C73.8003 41.8938 73.3473 41.4315 73.0145 40.8399C72.6909 40.2389 72.5291 39.5456 72.5291 38.7597C72.5291 37.9739 72.6863 37.2852 73.0006 36.6935C73.3242 36.0926 73.7726 35.6303 74.3458 35.3067C74.9282 34.9832 75.5938 34.8214 76.3427 34.8214C77.0638 34.8214 77.7063 34.9785 78.2703 35.2929C78.8342 35.6072 79.2733 36.0509 79.5877 36.6241C79.902 37.1881 80.0592 37.8399 80.0592 38.5795ZM78.4089 38.0802C78.3997 37.4978 78.1917 37.0309 77.7849 36.6796C77.3781 36.3283 76.8743 36.1526 76.2733 36.1526C75.7279 36.1526 75.261 36.3283 74.8727 36.6796C74.4844 37.0217 74.2533 37.4885 74.1793 38.0802H78.4089ZM81.088 38.732C81.088 37.9647 81.2451 37.2852 81.5595 36.6935C81.883 36.1018 82.3175 35.6442 82.863 35.3206C83.4177 34.9878 84.0279 34.8214 84.6935 34.8214C85.2944 34.8214 85.8168 34.9415 86.2605 35.1819C86.7135 35.413 87.0741 35.7043 87.3422 36.0556V34.9462H88.937V42.5872H87.3422V41.45C87.0741 41.8106 86.7089 42.111 86.2467 42.3514C85.7844 42.5918 85.2575 42.712 84.6658 42.712C84.0094 42.712 83.4085 42.5456 82.863 42.2127C82.3175 41.8707 81.883 41.3992 81.5595 40.7983C81.2451 40.1881 81.088 39.4993 81.088 38.732ZM87.3422 38.7597C87.3422 38.2328 87.2313 37.7751 87.0094 37.3868C86.7967 36.9986 86.5148 36.7027 86.1635 36.4993C85.8122 36.2959 85.4331 36.1942 85.0263 36.1942C84.6195 36.1942 84.2405 36.2959 83.8892 36.4993C83.5379 36.6935 83.2513 36.9847 83.0294 37.373C82.8168 37.752 82.7105 38.205 82.7105 38.732C82.7105 39.259 82.8168 39.7212 83.0294 40.1187C83.2513 40.5163 83.5379 40.8214 83.8892 41.034C84.2497 41.2374 84.6288 41.3391 85.0263 41.3391C85.4331 41.3391 85.8122 41.2374 86.1635 41.034C86.5148 40.8306 86.7967 40.5348 87.0094 40.1465C87.2313 39.7489 87.3422 39.2867 87.3422 38.7597ZM92.8578 36.2358V40.4654C92.8578 40.752 92.9225 40.96 93.0519 41.0895C93.1906 41.2097 93.4217 41.2697 93.7453 41.2697H94.716V42.5872H93.4679C92.7561 42.5872 92.2106 42.4207 91.8316 42.0879C91.4525 41.7551 91.263 41.2143 91.263 40.4654V36.2358H90.3616V34.9462H91.263V33.0463H92.8578V34.9462H94.716V36.2358H92.8578ZM96.9774 33.9338C96.6908 33.9338 96.4504 33.8368 96.2563 33.6426C96.0621 33.4485 95.9651 33.2081 95.9651 32.9215C95.9651 32.6349 96.0621 32.3946 96.2563 32.2004C96.4504 32.0063 96.6908 31.9092 96.9774 31.9092C97.2547 31.9092 97.4905 32.0063 97.6846 32.2004C97.8788 32.3946 97.9759 32.6349 97.9759 32.9215C97.9759 33.2081 97.8788 33.4485 97.6846 33.6426C97.4905 33.8368 97.2547 33.9338 96.9774 33.9338ZM97.754 34.9462V42.5872H96.1731V34.9462H97.754ZM103.685 34.8214C104.286 34.8214 104.822 34.9462 105.293 35.1958C105.774 35.4454 106.148 35.8152 106.417 36.3052C106.685 36.7952 106.819 37.3869 106.819 38.0802V42.5872H105.252V38.316C105.252 37.6318 105.081 37.1095 104.739 36.7489C104.397 36.3791 103.93 36.1942 103.338 36.1942C102.746 36.1942 102.275 36.3791 101.924 36.7489C101.581 37.1095 101.41 37.6318 101.41 38.316V42.5872H99.8295V34.9462H101.41V35.8198C101.669 35.5055 101.997 35.2605 102.395 35.0848C102.802 34.9092 103.232 34.8214 103.685 34.8214ZM111.914 34.8214C112.506 34.8214 113.028 34.9415 113.481 35.1819C113.943 35.413 114.304 35.7043 114.563 36.0556V34.9462H116.157V42.712C116.157 43.4146 116.009 44.0386 115.714 44.5841C115.418 45.1388 114.988 45.5733 114.424 45.8876C113.869 46.202 113.204 46.3591 112.427 46.3591C111.392 46.3591 110.532 46.1141 109.848 45.6241C109.163 45.1434 108.775 44.487 108.683 43.655H110.25C110.37 44.0525 110.624 44.3714 111.012 44.6118C111.41 44.8614 111.882 44.9862 112.427 44.9862C113.065 44.9862 113.578 44.7921 113.966 44.4038C114.364 44.0155 114.563 43.4516 114.563 42.712V41.4362C114.294 41.7967 113.929 42.1018 113.467 42.3514C113.014 42.5918 112.496 42.712 111.914 42.712C111.248 42.712 110.638 42.5456 110.083 42.2127C109.538 41.8707 109.103 41.3992 108.78 40.7983C108.465 40.1881 108.308 39.4993 108.308 38.732C108.308 37.9647 108.465 37.2852 108.78 36.6935C109.103 36.1018 109.538 35.6442 110.083 35.3206C110.638 34.9878 111.248 34.8214 111.914 34.8214ZM114.563 38.7597C114.563 38.2328 114.452 37.7751 114.23 37.3868C114.017 36.9986 113.735 36.7027 113.384 36.4993C113.033 36.2959 112.653 36.1942 112.247 36.1942C111.84 36.1942 111.461 36.2959 111.11 36.4993C110.758 36.6935 110.472 36.9847 110.25 37.373C110.037 37.752 109.931 38.205 109.931 38.732C109.931 39.259 110.037 39.7212 110.25 40.1187C110.472 40.5163 110.758 40.8214 111.11 41.034C111.47 41.2374 111.849 41.3391 112.247 41.3391C112.653 41.3391 113.033 41.2374 113.384 41.034C113.735 40.8306 114.017 40.5348 114.23 40.1465C114.452 39.7489 114.563 39.2867 114.563 38.7597Z" fill="#999999"/>
<defs>
<clipPath id="clip0_0_215">
<rect width="21" height="21" fill="white" transform="translate(0.876831 27.5872)"/>
</clipPath>
</defs>
</svg>
