<svg width="115" height="115" viewBox="0 0 115 115" fill="none" xmlns="http://www.w3.org/2000/svg">
<g filter="url(#filter0_d_0_205)">
<circle cx="57.49" cy="39.3791" r="18.49" fill="white"/>
</g>
<path d="M51.7734 45.7963V32.9617C51.7734 32.4073 52.3855 32.0733 52.8514 32.3712L62.8836 38.7886C63.3152 39.0648 63.3152 39.6932 62.8836 39.9695L52.8514 46.3868C52.3855 46.6847 51.7734 46.3507 51.7734 45.7963Z" fill="#313131"/>
<path d="M52.0442 45.7965C52.0442 45.5437 52.0442 45.2891 52.0442 45.0363C52.0442 44.3917 52.0442 43.7471 52.0442 43.1024C52.0442 42.2267 52.0442 41.351 52.0442 40.477C52.0442 39.5381 52.0442 38.5991 52.0442 37.6584C52.0442 36.8205 52.0442 35.9827 52.0442 35.1431C52.0442 34.5707 52.0442 34.0001 52.0442 33.4277C52.0442 33.2941 52.0442 33.1587 52.0442 33.025C52.0442 33.0052 52.0442 32.9835 52.0442 32.9637C52.0442 32.9546 52.0442 32.951 52.0442 32.9384C52.0442 32.9221 52.046 32.9077 52.0478 32.8914C52.0442 32.9492 52.046 32.9005 52.0496 32.8842C52.0586 32.8517 52.0676 32.8192 52.0767 32.7885C52.0586 32.8427 52.0713 32.7975 52.0803 32.7831C52.0929 32.7614 52.1038 32.7397 52.1182 32.7181C52.1254 32.7054 52.1345 32.6946 52.1417 32.6838C52.1092 32.7289 52.1308 32.6982 52.1399 32.6892C52.1652 32.6639 52.1886 32.6404 52.2157 32.617C52.1724 32.6549 52.2049 32.6242 52.2193 32.6152C52.2338 32.6061 52.2482 32.5971 52.2645 32.5881C52.2771 32.5809 52.2897 32.5754 52.3024 32.5682C52.3547 32.5393 52.2627 32.579 52.315 32.5628C52.3493 32.5538 52.3818 32.5429 52.4161 32.5357C52.4775 32.5195 52.38 32.5303 52.4179 32.5357C52.4342 32.5375 52.4541 32.5339 52.4703 32.5339C52.4848 32.5339 52.4992 32.5339 52.5136 32.5357C52.5173 32.5357 52.5841 32.5483 52.5425 32.5375C52.4992 32.5267 52.5696 32.5447 52.5714 32.5447C52.5931 32.5502 52.6148 32.5574 52.6346 32.5646C52.6816 32.579 52.6437 32.5682 52.6328 32.5628C52.6545 32.5736 52.6744 32.5845 52.6942 32.5953C52.7014 32.5989 52.7087 32.6043 52.7141 32.6079C52.7159 32.6097 52.7177 32.6097 52.7195 32.6115C52.7448 32.6278 52.7719 32.644 52.7971 32.6603C52.9326 32.747 53.0662 32.8318 53.2016 32.9185C53.7271 33.2544 54.2543 33.592 54.7798 33.9279C55.5201 34.4028 56.2622 34.8758 57.0025 35.3507C57.788 35.8527 58.5735 36.3565 59.3607 36.8585C60.0378 37.2918 60.7132 37.7234 61.3903 38.1567C61.7929 38.4149 62.1956 38.6732 62.6001 38.9296C62.6398 38.9548 62.6777 38.9801 62.7174 39.0036C62.7265 39.009 62.7355 39.0144 62.7445 39.0198C62.7463 39.0198 62.7481 39.0216 62.7481 39.0216C62.7608 39.0307 62.7752 39.0397 62.7879 39.0487C62.7463 39.0162 62.7861 39.0487 62.7951 39.0578C62.8131 39.0776 62.8312 39.0957 62.8493 39.1137C62.8601 39.1246 62.8709 39.1535 62.8475 39.1119C62.8547 39.1246 62.8637 39.1354 62.8709 39.148C62.8818 39.1661 62.8908 39.186 62.9016 39.2058C62.9088 39.2203 62.9143 39.251 62.8998 39.2004C62.9107 39.2347 62.9215 39.2672 62.9305 39.3033C62.9341 39.3178 62.9359 39.3304 62.9377 39.3449C62.9269 39.2762 62.9359 39.3413 62.9359 39.3575C62.9359 39.3774 62.9269 39.4839 62.9377 39.4117C62.9323 39.446 62.9251 39.4821 62.9143 39.5146C62.9107 39.529 62.9052 39.5417 62.8998 39.5543C62.9179 39.4983 62.9052 39.5435 62.8962 39.5579C62.8872 39.5742 62.88 39.5904 62.8691 39.6049C62.8637 39.6121 62.8222 39.6699 62.8601 39.6211C62.8366 39.65 62.8095 39.6753 62.7824 39.7024C62.7752 39.7096 62.7427 39.7349 62.7824 39.7042C62.768 39.715 62.759 39.7204 62.7427 39.7313C62.7409 39.7313 62.7409 39.7331 62.7391 39.7331C62.7319 39.7385 62.7229 39.7439 62.7156 39.7475C62.4087 39.9443 62.1017 40.1394 61.7948 40.3362C61.1754 40.7316 60.5561 41.1289 59.9367 41.5243C59.1585 42.0209 58.3821 42.5192 57.6038 43.0158C56.84 43.5051 56.0744 43.9944 55.3106 44.4838C54.7129 44.8666 54.1153 45.2494 53.5176 45.6304C53.2504 45.8019 52.9849 45.9753 52.7159 46.1432C52.687 46.1612 52.6581 46.1775 52.6274 46.1937C52.6725 46.1703 52.64 46.1883 52.6292 46.1919C52.6112 46.1974 52.5931 46.2028 52.575 46.2082C52.557 46.2136 52.5389 46.2154 52.5209 46.2208C52.5696 46.2064 52.548 46.219 52.5281 46.219C52.492 46.2208 52.4577 46.2208 52.4216 46.219C52.371 46.2172 52.4198 46.219 52.4306 46.2208C52.4107 46.2172 52.3891 46.2136 52.3692 46.2082C52.3511 46.2046 52.2735 46.1757 52.3024 46.1883C52.3313 46.201 52.2554 46.163 52.241 46.154C52.2265 46.145 52.2121 46.1323 52.1977 46.1251C52.1633 46.1089 52.2392 46.1667 52.194 46.1215C52.1688 46.0962 52.1435 46.0728 52.12 46.0457C52.1579 46.0872 52.1128 46.033 52.1002 46.015C52.0893 45.9969 52.0803 45.9771 52.0695 45.959C52.0622 45.9446 52.0586 45.9157 52.0713 45.9644C52.0622 45.9283 52.0496 45.894 52.0406 45.8579C52.037 45.8434 52.0388 45.8091 52.0406 45.8615C52.046 45.8434 52.0442 45.82 52.0442 45.7965C52.0424 45.6557 51.9214 45.5184 51.7733 45.5256C51.6289 45.5329 51.5007 45.6448 51.5025 45.7965C51.5079 46.154 51.7029 46.4989 52.0297 46.6596C52.3385 46.8113 52.696 46.8022 52.9903 46.6199C53.0572 46.5783 53.124 46.535 53.189 46.4917C53.6277 46.2118 54.0665 45.9301 54.5053 45.6502C55.2113 45.1988 55.9173 44.7474 56.6233 44.296C57.4232 43.7832 58.225 43.2722 59.0249 42.7594C59.7544 42.2935 60.4838 41.8258 61.2133 41.36C61.7045 41.0458 62.1974 40.7316 62.6886 40.4156C62.7915 40.3506 62.8944 40.2838 62.9973 40.2188C63.0948 40.1556 63.1869 40.0834 63.2591 39.9913C63.4957 39.6934 63.539 39.2979 63.3783 38.953C63.279 38.7418 63.1021 38.6082 62.9143 38.4872C62.7698 38.3951 62.6236 38.3012 62.4791 38.2091C61.9284 37.857 61.3776 37.5049 60.8287 37.1528C60.0703 36.6671 59.3102 36.1813 58.5518 35.6956C57.7537 35.1864 56.9574 34.6754 56.1593 34.1662C55.493 33.7401 54.8267 33.3139 54.1604 32.8878C53.7957 32.6549 53.4327 32.422 53.068 32.189C52.8206 32.0301 52.5461 31.9489 52.25 32.0157C51.7932 32.1186 51.5025 32.5393 51.5007 32.9943C51.5007 33.3465 51.5007 33.6968 51.5007 34.0489C51.5007 34.7711 51.5007 35.4934 51.5007 36.2156C51.5007 37.1329 51.5007 38.0484 51.5007 38.9657C51.5007 39.9064 51.5007 40.849 51.5007 41.7897C51.5007 42.586 51.5007 43.3823 51.5007 44.1804C51.5007 44.6571 51.5007 45.132 51.5007 45.6087C51.5007 45.6719 51.5007 45.7351 51.5007 45.8001C51.5007 45.9409 51.6253 46.0782 51.7715 46.071C51.9196 46.0601 52.0442 45.9482 52.0442 45.7965Z" fill="#313131"/>
<defs>
<filter id="filter0_d_0_205" x="0.479198" y="0.858341" width="114.022" height="114.022" filterUnits="userSpaceOnUse" color-interpolation-filters="sRGB">
<feFlood flood-opacity="0" result="BackgroundImageFix"/>
<feColorMatrix in="SourceAlpha" type="matrix" values="0 0 0 0 0 0 0 0 0 0 0 0 0 0 0 0 0 0 127 0" result="hardAlpha"/>
<feOffset dy="18.49"/>
<feGaussianBlur stdDeviation="19.2604"/>
<feComposite in2="hardAlpha" operator="out"/>
<feColorMatrix type="matrix" values="0 0 0 0 0 0 0 0 0 0 0 0 0 0 0 0 0 0 0.15 0"/>
<feBlend mode="normal" in2="BackgroundImageFix" result="effect1_dropShadow_0_205"/>
<feBlend mode="normal" in="SourceGraphic" in2="effect1_dropShadow_0_205" result="shape"/>
</filter>
</defs>
</svg>
