<svg width="22" height="21" viewBox="0 0 22 21" fill="none" xmlns="http://www.w3.org/2000/svg">
<rect width="20.3203" height="20.3203" transform="translate(0.770996 0.37793)" fill="#6D2E93"/>
<path d="M18.5512 10.1148C18.5541 11.2323 18.293 12.3346 17.7892 13.3321C17.1918 14.5274 16.2735 15.5328 15.137 16.2356C14.0005 16.9385 12.6907 17.311 11.3545 17.3115C10.237 17.3144 9.13458 17.0533 8.1371 16.5495L3.31104 18.1582L4.91972 13.3321C4.41589 12.3346 4.1548 11.2323 4.15771 10.1148C4.15823 8.77849 4.53077 7.46876 5.2336 6.33226C5.93643 5.19577 6.9418 4.27739 8.1371 3.68C9.13458 3.17617 10.237 2.91508 11.3545 2.91799H11.7778C13.5426 3.01535 15.2094 3.76023 16.4592 5.01001C17.709 6.25979 18.4539 7.92664 18.5512 9.69141V10.1148Z" stroke="white" stroke-width="1.69335" stroke-linecap="round" stroke-linejoin="round"/>
</svg>
