<svg width="149" height="49" viewBox="0 0 149 49" fill="none" xmlns="http://www.w3.org/2000/svg">
<path d="M7.3837 5.74432V7.31135H3.34826V9.79363H6.44071V11.3329H3.34826V15.4238H1.40681V5.74432H7.3837ZM10.7018 8.93384C10.9514 8.52706 11.275 8.20811 11.6725 7.97699C12.0793 7.74586 12.5416 7.6303 13.0593 7.6303V9.66882H12.5462C11.936 9.66882 11.4738 9.81212 11.1594 10.0987C10.8544 10.3853 10.7018 10.8845 10.7018 11.5964V15.4238H8.76037V7.74124H10.7018V8.93384ZM21.5087 11.4161C21.5087 11.6935 21.4902 11.9431 21.4532 12.165H15.8369C15.8831 12.7197 16.0773 13.1542 16.4193 13.4685C16.7614 13.7828 17.1821 13.94 17.6813 13.94C18.4024 13.94 18.9155 13.6303 19.2206 13.0109H21.3146C21.0927 13.7505 20.6674 14.3607 20.0388 14.8414C19.4101 15.3129 18.6381 15.5486 17.7229 15.5486C16.9833 15.5486 16.3176 15.3868 15.726 15.0633C15.1435 14.7305 14.6859 14.2636 14.3531 13.6627C14.0295 13.0617 13.8677 12.3684 13.8677 11.5825C13.8677 10.7875 14.0295 10.0895 14.3531 9.48854C14.6767 8.88762 15.1297 8.42537 15.7121 8.10179C16.2945 7.77822 16.9648 7.61643 17.7229 7.61643C18.4532 7.61643 19.105 7.7736 19.6782 8.08793C20.2606 8.40226 20.709 8.85064 21.0233 9.43307C21.3469 10.0063 21.5087 10.6673 21.5087 11.4161ZM19.4979 10.8614C19.4887 10.3622 19.3084 9.96466 18.9571 9.66882C18.6058 9.36374 18.1759 9.21119 17.6674 9.21119C17.1867 9.21119 16.7799 9.35911 16.4471 9.65495C16.1235 9.94155 15.9247 10.3437 15.8508 10.8614H19.4979ZM30.0675 11.4161C30.0675 11.6935 30.0491 11.9431 30.0121 12.165H24.3957C24.442 12.7197 24.6361 13.1542 24.9782 13.4685C25.3202 13.7828 25.7409 13.94 26.2401 13.94C26.9612 13.94 27.4743 13.6303 27.7794 13.0109H29.8734C29.6515 13.7505 29.2263 14.3607 28.5976 14.8414C27.9689 15.3129 27.197 15.5486 26.2817 15.5486C25.5421 15.5486 24.8765 15.3868 24.2848 15.0633C23.7024 14.7305 23.2447 14.2636 22.9119 13.6627C22.5883 13.0617 22.4266 12.3684 22.4266 11.5825C22.4266 10.7875 22.5883 10.0895 22.9119 9.48854C23.2355 8.88762 23.6885 8.42537 24.2709 8.10179C24.8534 7.77822 25.5236 7.61643 26.2817 7.61643C27.0121 7.61643 27.6638 7.7736 28.237 8.08793C28.8195 8.40226 29.2679 8.85064 29.5822 9.43307C29.9058 10.0063 30.0675 10.6673 30.0675 11.4161ZM28.0568 10.8614C28.0475 10.3622 27.8672 9.96466 27.5159 9.66882C27.1646 9.36374 26.7347 9.21119 26.2263 9.21119C25.7455 9.21119 25.3387 9.35911 25.0059 9.65495C24.6823 9.94155 24.4836 10.3437 24.4096 10.8614H28.0568ZM38.1311 15.5209C37.4562 15.5209 36.846 15.4053 36.3005 15.1742C35.7643 14.9431 35.3391 14.6103 35.0247 14.1758C34.7104 13.7412 34.5486 13.2281 34.5394 12.6365H36.6195C36.6472 13.034 36.7859 13.3483 37.0355 13.5795C37.2944 13.8106 37.6457 13.9261 38.0895 13.9261C38.5425 13.9261 38.8984 13.8198 39.1572 13.6072C39.4161 13.3853 39.5455 13.0987 39.5455 12.7474C39.5455 12.4608 39.4577 12.2251 39.2821 12.0402C39.1064 11.8553 38.8845 11.712 38.6164 11.6103C38.3576 11.4993 37.997 11.3791 37.5348 11.2497C36.9061 11.0648 36.393 10.8845 35.9955 10.7089C35.6072 10.524 35.2697 10.2513 34.9831 9.8907C34.7058 9.5209 34.5671 9.03092 34.5671 8.42075C34.5671 7.84756 34.7104 7.34833 34.997 6.92306C35.2836 6.49779 35.6858 6.17421 36.2035 5.95233C36.7212 5.72121 37.3129 5.60565 37.9785 5.60565C38.977 5.60565 39.7859 5.85064 40.4053 6.34062C41.034 6.82136 41.3807 7.49625 41.4454 8.36528H39.3098C39.2913 8.03246 39.148 7.75973 38.8799 7.54709C38.621 7.32522 38.2744 7.21428 37.8398 7.21428C37.4608 7.21428 37.1557 7.31135 36.9246 7.50549C36.7027 7.69964 36.5918 7.98161 36.5918 8.35141C36.5918 8.61027 36.675 8.82753 36.8414 9.00318C37.017 9.16959 37.2297 9.30827 37.4793 9.41921C37.7381 9.5209 38.0987 9.64109 38.5609 9.77976C39.1896 9.96466 39.7027 10.1496 40.1002 10.3345C40.4978 10.5194 40.8398 10.7967 41.1264 11.1665C41.413 11.5363 41.5563 12.0217 41.5563 12.6226C41.5563 13.1403 41.4223 13.6211 41.1542 14.0648C40.8861 14.5086 40.4932 14.8645 39.9754 15.1326C39.4577 15.3915 38.8429 15.5209 38.1311 15.5209ZM47.5661 7.6303C48.1486 7.6303 48.6663 7.75973 49.1193 8.01859C49.5723 8.2682 49.9236 8.64263 50.1732 9.14186C50.4321 9.63184 50.5615 10.2235 50.5615 10.9169V15.4238H48.6201V11.1804C48.6201 10.5702 48.4675 10.1033 48.1624 9.77976C47.8574 9.44694 47.4413 9.28053 46.9144 9.28053C46.3782 9.28053 45.9529 9.44694 45.6386 9.77976C45.3335 10.1033 45.1809 10.5702 45.1809 11.1804V15.4238H43.2395V5.16189H45.1809V8.6981C45.4306 8.36528 45.7634 8.10642 46.1794 7.92152C46.5954 7.72737 47.0577 7.6303 47.5661 7.6303ZM53.3923 6.82599C53.0503 6.82599 52.7637 6.71967 52.5325 6.50703C52.3107 6.28515 52.1997 6.01243 52.1997 5.68885C52.1997 5.36528 52.3107 5.09717 52.5325 4.88454C52.7637 4.66266 53.0503 4.55172 53.3923 4.55172C53.7344 4.55172 54.0164 4.66266 54.2383 4.88454C54.4694 5.09717 54.5849 5.36528 54.5849 5.68885C54.5849 6.01243 54.4694 6.28515 54.2383 6.50703C54.0164 6.71967 53.7344 6.82599 53.3923 6.82599ZM54.3492 7.74124V15.4238H52.4077V7.74124H54.3492ZM58.2088 8.85064C58.4584 8.49933 58.8005 8.20811 59.235 7.97699C59.6787 7.73662 60.1826 7.61643 60.7465 7.61643C61.4029 7.61643 61.9946 7.77822 62.5216 8.10179C63.0578 8.42537 63.4784 8.88762 63.7835 9.48854C64.0979 10.0802 64.255 10.769 64.255 11.5548C64.255 12.3406 64.0979 13.0386 63.7835 13.6488C63.4784 14.2497 63.0578 14.7166 62.5216 15.0494C61.9946 15.3822 61.4029 15.5486 60.7465 15.5486C60.1826 15.5486 59.6834 15.4331 59.2489 15.2019C58.8236 14.9708 58.4769 14.6796 58.2088 14.3283V19.0848H56.2673V7.74124H58.2088V8.85064ZM62.272 11.5548C62.272 11.0925 62.1749 10.695 61.9808 10.3622C61.7959 10.0201 61.5462 9.76127 61.2319 9.58562C60.9268 9.40996 60.594 9.32213 60.2334 9.32213C59.8821 9.32213 59.5493 9.41458 59.235 9.59948C58.9299 9.77514 58.6803 10.034 58.4861 10.3761C58.3012 10.7181 58.2088 11.1203 58.2088 11.5825C58.2088 12.0448 58.3012 12.4469 58.4861 12.789C58.6803 13.1311 58.9299 13.3946 59.235 13.5795C59.5493 13.7551 59.8821 13.8429 60.2334 13.8429C60.594 13.8429 60.9268 13.7505 61.2319 13.5656C61.5462 13.3807 61.7959 13.1172 61.9808 12.7751C62.1749 12.4331 62.272 12.0263 62.272 11.5548ZM67.6073 8.85064C67.8569 8.49933 68.1989 8.20811 68.6335 7.97699C69.0772 7.73662 69.5811 7.61643 70.145 7.61643C70.8014 7.61643 71.3931 7.77822 71.9201 8.10179C72.4563 8.42537 72.8769 8.88762 73.182 9.48854C73.4963 10.0802 73.6535 10.769 73.6535 11.5548C73.6535 12.3406 73.4963 13.0386 73.182 13.6488C72.8769 14.2497 72.4563 14.7166 71.9201 15.0494C71.3931 15.3822 70.8014 15.5486 70.145 15.5486C69.5811 15.5486 69.0818 15.4331 68.6473 15.2019C68.2221 14.9708 67.8754 14.6796 67.6073 14.3283V19.0848H65.6658V7.74124H67.6073V8.85064ZM71.6704 11.5548C71.6704 11.0925 71.5734 10.695 71.3792 10.3622C71.1943 10.0201 70.9447 9.76127 70.6304 9.58562C70.3253 9.40996 69.9925 9.32213 69.6319 9.32213C69.2806 9.32213 68.9478 9.41458 68.6335 9.59948C68.3284 9.77514 68.0788 10.034 67.8846 10.3761C67.6997 10.7181 67.6073 11.1203 67.6073 11.5825C67.6073 12.0448 67.6997 12.4469 67.8846 12.789C68.0788 13.1311 68.3284 13.3946 68.6335 13.5795C68.9478 13.7551 69.2806 13.8429 69.6319 13.8429C69.9925 13.8429 70.3253 13.7505 70.6304 13.5656C70.9447 13.3807 71.1943 13.1172 71.3792 12.7751C71.5734 12.4331 71.6704 12.0263 71.6704 11.5548ZM76.0489 6.82599C75.7068 6.82599 75.4202 6.71967 75.1891 6.50703C74.9672 6.28515 74.8563 6.01243 74.8563 5.68885C74.8563 5.36528 74.9672 5.09717 75.1891 4.88454C75.4202 4.66266 75.7068 4.55172 76.0489 4.55172C76.391 4.55172 76.6729 4.66266 76.8948 4.88454C77.1259 5.09717 77.2415 5.36528 77.2415 5.68885C77.2415 6.01243 77.1259 6.28515 76.8948 6.50703C76.6729 6.71967 76.391 6.82599 76.0489 6.82599ZM77.0057 7.74124V15.4238H75.0643V7.74124H77.0057ZM83.1812 7.6303C84.0965 7.6303 84.8361 7.92152 85.4 8.50395C85.964 9.07714 86.2459 9.88146 86.2459 10.9169V15.4238H84.3045V11.1804C84.3045 10.5702 84.1519 10.1033 83.8469 9.77976C83.5418 9.44694 83.1257 9.28053 82.5988 9.28053C82.0626 9.28053 81.6373 9.44694 81.323 9.77976C81.0179 10.1033 80.8653 10.5702 80.8653 11.1804V15.4238H78.9239V7.74124H80.8653V8.6981C81.1242 8.36528 81.4524 8.10642 81.8499 7.92152C82.2567 7.72737 82.7005 7.6303 83.1812 7.6303ZM91.1014 7.61643C91.6746 7.61643 92.1784 7.73199 92.6129 7.96312C93.0475 8.185 93.3895 8.47622 93.6391 8.83677V7.74124H95.5945V15.4793C95.5945 16.1912 95.4512 16.8244 95.1646 17.3791C94.878 17.9431 94.4481 18.3868 93.8749 18.7104C93.3017 19.0432 92.6083 19.2097 91.7948 19.2097C90.7039 19.2097 89.8071 18.9554 89.1045 18.4469C88.4111 17.9385 88.0182 17.2451 87.9257 16.3668H89.8533C89.955 16.7181 90.1723 16.9955 90.5051 17.1989C90.8472 17.4115 91.2586 17.5178 91.7393 17.5178C92.3032 17.5178 92.7609 17.3468 93.1122 17.0047C93.4635 16.6719 93.6391 16.1634 93.6391 15.4793V14.2867C93.3895 14.6472 93.0428 14.9477 92.5991 15.1881C92.1646 15.4285 91.6653 15.5486 91.1014 15.5486C90.4542 15.5486 89.8626 15.3822 89.3264 15.0494C88.7901 14.7166 88.3649 14.2497 88.0505 13.6488C87.7455 13.0386 87.5929 12.3406 87.5929 11.5548C87.5929 10.7782 87.7455 10.0895 88.0505 9.48854C88.3649 8.88762 88.7855 8.42537 89.3125 8.10179C89.8487 7.77822 90.445 7.61643 91.1014 7.61643ZM93.6391 11.5825C93.6391 11.111 93.5467 10.7089 93.3618 10.3761C93.1769 10.034 92.9273 9.77514 92.6129 9.59948C92.2986 9.41458 91.9612 9.32213 91.6006 9.32213C91.2401 9.32213 90.9072 9.40996 90.6022 9.58562C90.2971 9.76127 90.0475 10.0201 89.8533 10.3622C89.6684 10.695 89.576 11.0925 89.576 11.5548C89.576 12.017 89.6684 12.4238 89.8533 12.7751C90.0475 13.1172 90.2971 13.3807 90.6022 13.5656C90.9165 13.7505 91.2493 13.8429 91.6006 13.8429C91.9612 13.8429 92.2986 13.7551 92.6129 13.5795C92.9273 13.3946 93.1769 13.1357 93.3618 12.8029C93.5467 12.4608 93.6391 12.054 93.6391 11.5825Z" fill="#909090"/>
<path d="M34.0617 42.5872H32.4808L27.7243 35.3899V42.5872H26.1434V32.9354H27.7243L32.4808 40.1187V32.9354H34.0617V42.5872ZM39.4521 42.712C38.7309 42.712 38.0792 42.5502 37.4967 42.2266C36.9143 41.8938 36.4567 41.4315 36.1239 40.8399C35.791 40.2389 35.6246 39.5456 35.6246 38.7597C35.6246 37.9832 35.7957 37.2944 36.1377 36.6935C36.4798 36.0926 36.9467 35.6303 37.5383 35.3067C38.13 34.9832 38.791 34.8214 39.5214 34.8214C40.2517 34.8214 40.9128 34.9832 41.5044 35.3067C42.0961 35.6303 42.563 36.0926 42.9051 36.6935C43.2471 37.2944 43.4182 37.9832 43.4182 38.7597C43.4182 39.5363 43.2425 40.2251 42.8912 40.826C42.5399 41.4269 42.0591 41.8938 41.449 42.2266C40.848 42.5502 40.1824 42.712 39.4521 42.712ZM39.4521 41.3391C39.8588 41.3391 40.2379 41.242 40.5892 41.0479C40.9497 40.8537 41.241 40.5625 41.4628 40.1742C41.6847 39.7859 41.7957 39.3144 41.7957 38.7597C41.7957 38.205 41.6893 37.7382 41.4767 37.3591C41.2641 36.9708 40.9821 36.6796 40.6308 36.4855C40.2795 36.2913 39.9004 36.1942 39.4937 36.1942C39.0869 36.1942 38.7078 36.2913 38.3565 36.4855C38.0145 36.6796 37.7417 36.9708 37.5383 37.3591C37.3349 37.7382 37.2333 38.205 37.2333 38.7597C37.2333 39.5825 37.4413 40.2204 37.8573 40.6734C38.2826 41.1172 38.8141 41.3391 39.4521 41.3391ZM50.8469 36.9015V38.2328H45.1474V36.9015H50.8469ZM52.5659 37.7474C52.5659 36.8044 52.7832 35.9585 53.2177 35.2097C53.6615 34.4608 54.2578 33.8784 55.0066 33.4624C55.7647 33.0371 56.5921 32.8244 57.4889 32.8244C58.5151 32.8244 59.4257 33.0787 60.2208 33.5872C61.0251 34.0864 61.6075 34.7983 61.9681 35.7228H60.0682C59.8186 35.2143 59.4719 34.8352 59.0282 34.5856C58.5844 34.336 58.0713 34.2112 57.4889 34.2112C56.851 34.2112 56.2824 34.3545 55.7832 34.6411C55.284 34.9277 54.891 35.3391 54.6044 35.8753C54.3271 36.4115 54.1884 37.0355 54.1884 37.7474C54.1884 38.4593 54.3271 39.0833 54.6044 39.6195C54.891 40.1557 55.284 40.5717 55.7832 40.8676C56.2824 41.1542 56.851 41.2975 57.4889 41.2975C58.0713 41.2975 58.5844 41.1727 59.0282 40.9231C59.4719 40.6734 59.8186 40.2944 60.0682 39.7859H61.9681C61.6075 40.7104 61.0251 41.4223 60.2208 41.9215C59.4257 42.4207 58.5151 42.6704 57.4889 42.6704C56.5829 42.6704 55.7554 42.4624 55.0066 42.0463C54.2578 41.6211 53.6615 41.034 53.2177 40.2852C52.7832 39.5363 52.5659 38.6904 52.5659 37.7474ZM67.1329 42.712C66.4117 42.712 65.76 42.5502 65.1775 42.2266C64.5951 41.8938 64.1375 41.4315 63.8047 40.8399C63.4718 40.2389 63.3054 39.5456 63.3054 38.7597C63.3054 37.9832 63.4765 37.2944 63.8185 36.6935C64.1606 36.0926 64.6275 35.6303 65.2191 35.3067C65.8108 34.9832 66.4718 34.8214 67.2022 34.8214C67.9325 34.8214 68.5936 34.9832 69.1852 35.3067C69.7769 35.6303 70.2438 36.0926 70.5859 36.6935C70.9279 37.2944 71.099 37.9832 71.099 38.7597C71.099 39.5363 70.9233 40.2251 70.572 40.826C70.2207 41.4269 69.7399 41.8938 69.1298 42.2266C68.5289 42.5502 67.8632 42.712 67.1329 42.712ZM67.1329 41.3391C67.5396 41.3391 67.9187 41.242 68.27 41.0479C68.6305 40.8537 68.9218 40.5625 69.1436 40.1742C69.3655 39.7859 69.4765 39.3144 69.4765 38.7597C69.4765 38.205 69.3701 37.7382 69.1575 37.3591C68.9449 36.9708 68.6629 36.6796 68.3116 36.4855C67.9603 36.2913 67.5812 36.1942 67.1745 36.1942C66.7677 36.1942 66.3886 36.2913 66.0373 36.4855C65.6953 36.6796 65.4225 36.9708 65.2191 37.3591C65.0158 37.7382 64.9141 38.205 64.9141 38.7597C64.9141 39.5825 65.1221 40.2204 65.5381 40.6734C65.9634 41.1172 66.495 41.3391 67.1329 41.3391ZM75.4353 42.712C74.8343 42.712 74.2935 42.6056 73.8128 42.393C73.3413 42.1711 72.9668 41.8753 72.6895 41.5055C72.4121 41.1264 72.2642 40.7058 72.2457 40.2436H73.8821C73.9098 40.5671 74.0624 40.8399 74.3397 41.0617C74.6263 41.2744 74.9823 41.3807 75.4075 41.3807C75.8513 41.3807 76.1933 41.2975 76.4337 41.1311C76.6833 40.9554 76.8081 40.7335 76.8081 40.4654C76.8081 40.1788 76.6695 39.9662 76.3921 39.8275C76.124 39.6889 75.6941 39.5363 75.1024 39.3699C74.5292 39.2127 74.0624 39.0602 73.7018 38.9123C73.3413 38.7644 73.0269 38.5379 72.7588 38.2328C72.5 37.9277 72.3705 37.5255 72.3705 37.0263C72.3705 36.6195 72.4907 36.2497 72.7311 35.9169C72.9715 35.5748 73.3135 35.3067 73.7573 35.1126C74.2103 34.9184 74.728 34.8214 75.3104 34.8214C76.1795 34.8214 76.8775 35.0432 77.4044 35.487C77.9406 35.9215 78.2272 36.5178 78.2642 37.2759H76.6833C76.6556 36.9338 76.5169 36.6611 76.2673 36.4577C76.0177 36.2543 75.6802 36.1526 75.255 36.1526C74.839 36.1526 74.52 36.2312 74.2981 36.3884C74.0762 36.5456 73.9653 36.7536 73.9653 37.0124C73.9653 37.2158 74.0393 37.3868 74.1872 37.5255C74.3351 37.6642 74.5154 37.7751 74.728 37.8583C74.9406 37.9323 75.255 38.0294 75.671 38.1496C76.2257 38.2975 76.6787 38.45 77.03 38.6072C77.3906 38.7551 77.7003 38.977 77.9591 39.2728C78.218 39.5687 78.3521 39.9616 78.3613 40.4516C78.3613 40.8861 78.2411 41.2744 78.0007 41.6164C77.7604 41.9585 77.4183 42.2266 76.9745 42.4207C76.54 42.6149 76.0269 42.712 75.4353 42.712ZM81.9139 36.2358V40.4654C81.9139 40.752 81.9786 40.96 82.108 41.0895C82.2467 41.2097 82.4778 41.2697 82.8014 41.2697H83.7721V42.5872H82.524C81.8122 42.5872 81.2667 42.4207 80.8877 42.0879C80.5086 41.7551 80.3191 41.2143 80.3191 40.4654V36.2358H79.4177V34.9462H80.3191V33.0463H81.9139V34.9462H83.7721V36.2358H81.9139ZM91.9794 32.9493C93.0056 32.9493 93.9023 33.148 94.6697 33.5456C95.4463 33.9338 96.0426 34.4978 96.4586 35.2374C96.8839 35.9677 97.0965 36.8229 97.0965 37.8029C97.0965 38.7828 96.8839 39.6334 96.4586 40.3545C96.0426 41.0756 95.4463 41.6303 94.6697 42.0186C93.9023 42.3976 93.0056 42.5872 91.9794 42.5872H88.8315V32.9493H91.9794ZM91.9794 41.2975C93.1073 41.2975 93.9717 40.9924 94.5726 40.3822C95.1735 39.7721 95.474 38.9123 95.474 37.8029C95.474 36.6842 95.1735 35.8106 94.5726 35.1819C93.9717 34.5533 93.1073 34.2389 91.9794 34.2389H90.4124V41.2975H91.9794ZM105.666 38.5795C105.666 38.866 105.648 39.1249 105.611 39.356H99.7727C99.8189 39.9662 100.045 40.4562 100.452 40.826C100.859 41.1958 101.358 41.3807 101.95 41.3807C102.8 41.3807 103.401 41.0248 103.753 40.3129H105.458C105.227 41.0155 104.807 41.5933 104.196 42.0463C103.596 42.4901 102.847 42.712 101.95 42.712C101.22 42.712 100.563 42.5502 99.9807 42.2266C99.4075 41.8938 98.9545 41.4315 98.6217 40.8399C98.2981 40.2389 98.1363 39.5456 98.1363 38.7597C98.1363 37.9739 98.2935 37.2852 98.6078 36.6935C98.9314 36.0926 99.3798 35.6303 99.953 35.3067C100.535 34.9832 101.201 34.8214 101.95 34.8214C102.671 34.8214 103.314 34.9785 103.877 35.2929C104.441 35.6072 104.881 36.0509 105.195 36.6241C105.509 37.1881 105.666 37.8399 105.666 38.5795ZM104.016 38.0802C104.007 37.4978 103.799 37.0309 103.392 36.6796C102.985 36.3283 102.481 36.1526 101.881 36.1526C101.335 36.1526 100.868 36.3283 100.48 36.6796C100.092 37.0217 99.8605 37.4885 99.7866 38.0802H104.016ZM108.803 32.3252V42.5872H107.222V32.3252H108.803ZM111.683 33.9338C111.396 33.9338 111.156 33.8368 110.962 33.6426C110.768 33.4485 110.671 33.2081 110.671 32.9215C110.671 32.6349 110.768 32.3946 110.962 32.2004C111.156 32.0063 111.396 31.9092 111.683 31.9092C111.96 31.9092 112.196 32.0063 112.39 32.2004C112.584 32.3946 112.681 32.6349 112.681 32.9215C112.681 33.2081 112.584 33.4485 112.39 33.6426C112.196 33.8368 111.96 33.9338 111.683 33.9338ZM112.46 34.9462V42.5872H110.879V34.9462H112.46ZM117.489 41.1727L119.652 34.9462H121.33L118.418 42.5872H116.532L113.634 34.9462H115.326L117.489 41.1727ZM129.528 38.5795C129.528 38.866 129.51 39.1249 129.473 39.356H123.635C123.681 39.9662 123.907 40.4562 124.314 40.826C124.721 41.1958 125.22 41.3807 125.812 41.3807C126.662 41.3807 127.263 41.0248 127.614 40.3129H129.32C129.089 41.0155 128.668 41.5933 128.058 42.0463C127.457 42.4901 126.708 42.712 125.812 42.712C125.081 42.712 124.425 42.5502 123.843 42.2266C123.269 41.8938 122.816 41.4315 122.484 40.8399C122.16 40.2389 121.998 39.5456 121.998 38.7597C121.998 37.9739 122.155 37.2852 122.47 36.6935C122.793 36.0926 123.242 35.6303 123.815 35.3067C124.397 34.9832 125.063 34.8214 125.812 34.8214C126.533 34.8214 127.175 34.9785 127.739 35.2929C128.303 35.6072 128.742 36.0509 129.057 36.6241C129.371 37.1881 129.528 37.8399 129.528 38.5795ZM127.878 38.0802C127.869 37.4978 127.661 37.0309 127.254 36.6796C126.847 36.3283 126.343 36.1526 125.742 36.1526C125.197 36.1526 124.73 36.3283 124.342 36.6796C123.953 37.0217 123.722 37.4885 123.648 38.0802H127.878ZM132.665 36.0556C132.896 35.6673 133.201 35.3668 133.58 35.1542C133.968 34.9323 134.426 34.8214 134.953 34.8214V36.4577H134.551C133.931 36.4577 133.46 36.6149 133.136 36.9292C132.822 37.2436 132.665 37.789 132.665 38.5656V42.5872H131.084V34.9462H132.665V36.0556ZM143.284 34.9462L138.597 46.1788H136.961L138.514 42.4624L135.505 34.9462H137.266L139.415 40.7705L141.648 34.9462H143.284Z" fill="#999999"/>
<g clip-path="url(#clip0_0_237)">
<path d="M10.8299 36.4L10.7196 36.3509H10.5188H10.375L10.2359 36.664L10.2351 36.6659L10.8299 36.4ZM10.8299 36.4L10.5884 36.5073L10.7662 36.9076L10.8299 36.4ZM10.5711 37.0509L10.2351 36.9016L10.1476 36.8627L10.0639 37.0509H10.5711ZM10.5711 37.0509H10.2351V37.4361M10.5711 37.0509L10.2351 37.4361M10.2351 37.4361L10.2359 37.4379L10.2351 37.4361ZM10.7248 37.2875L10.5884 37.5946L10.7248 37.2875ZM10.7248 37.2875V37.6552V37.7487V37.7509V37.2875ZM10.83 36.4L10.7196 36.3509L10.83 36.4Z" fill="black" stroke="#6D2E93" stroke-width="1.4"/>
<path d="M3.69153 42.2939V34.1877C3.69153 33.9997 3.80228 33.8293 3.97415 33.7529L10.6366 30.7917C10.7597 30.7371 10.9001 30.7371 11.0232 30.7917L17.6857 33.7529C17.8576 33.8293 17.9683 33.9997 17.9683 34.1877V42.2939C17.9683 42.482 17.8576 42.6524 17.6857 42.7288L11.0232 45.6899C10.9001 45.7446 10.7597 45.7446 10.6366 45.6899L3.97415 42.7288C3.80228 42.6524 3.69153 42.482 3.69153 42.2939Z" stroke="#6D2E93" stroke-width="1.4" stroke-linecap="round" stroke-linejoin="round"/>
<path d="M7.26073 32.2922L14.1165 35.3393C14.2884 35.4156 14.3991 35.5861 14.3991 35.7741V38.6375" stroke="#6D2E93" stroke-width="1.4" stroke-linecap="round" stroke-linejoin="round"/>
</g>
<defs>
<clipPath id="clip0_0_237">
<rect width="18.49" height="18.49" fill="white" transform="translate(0.449951 27.5872)"/>
</clipPath>
</defs>
</svg>
