<svg width="29" height="28" viewBox="0 0 29 28" fill="none" xmlns="http://www.w3.org/2000/svg">
<path d="M5.05368 24.9467L4.77677 23.7922C3.70621 19.329 6.45653 14.843 10.9198 13.7724" fill="#6D2E93"/>
<path d="M5.05368 24.9467L4.77677 23.7922C3.70621 19.329 6.45653 14.843 10.9198 13.7724" stroke="white" stroke-width="2" stroke-linecap="round" stroke-linejoin="round"/>
<path d="M18.8616 12.2502C19.4074 11.2589 20.6875 10.9519 21.6236 11.5877C22.0967 11.9091 22.6884 12.003 23.2377 11.8437C24.3246 11.5287 25.447 12.2168 25.6592 13.3283C25.7665 13.8901 26.1186 14.3748 26.6196 14.6507C27.6109 15.1965 27.918 16.4766 27.2821 17.4127C26.9607 17.8859 26.8669 18.4776 27.0261 19.0269C27.3411 20.1137 26.653 21.2361 25.5415 21.4484C24.9797 21.5557 24.495 21.9077 24.2191 22.4088C23.6733 23.4001 22.3932 23.7071 21.4571 23.0713C20.984 22.7499 20.3923 22.656 19.843 22.8153C18.7561 23.1303 17.6337 22.4422 17.4214 21.3307C17.3142 20.7689 16.9621 20.2841 16.4611 20.0083C15.4698 19.4625 15.1627 18.1824 15.7986 17.2463C16.12 16.7731 16.2138 16.1814 16.0546 15.6321C15.7396 14.5452 16.4277 13.4229 17.5392 13.2106C18.1009 13.1033 18.5857 12.7513 18.8616 12.2502Z" fill="#6D2E93" stroke="white" stroke-width="2"/>
<path d="M19.6511 17.7829L21.2128 18.7402L23.1275 15.6171" fill="#6D2E93"/>
<path d="M19.6511 17.7829L21.2128 18.7402L23.1275 15.6171" stroke="white" stroke-width="2" stroke-linecap="round" stroke-linejoin="round"/>
<path d="M10.9198 13.7724C13.4702 13.1607 15.0418 10.5972 14.4301 8.04679C13.8183 5.49636 11.2548 3.92476 8.70444 4.5365C6.15402 5.14825 4.58241 7.71169 5.19415 10.2621C5.80589 12.8125 8.36935 14.3842 10.9198 13.7724Z" fill="#6D2E93" stroke="white" stroke-width="2" stroke-linecap="round" stroke-linejoin="round"/>
</svg>
