<svg width="41" height="26" viewBox="0 0 41 26" fill="none" xmlns="http://www.w3.org/2000/svg">
<path d="M2.00006 19.6V24.4" stroke="#A162C7" stroke-width="2.6" stroke-linecap="round" stroke-linejoin="round"/>
<path d="M20.6734 14.8V5.2C20.6734 3.43269 22.3454 2 24.4081 2H31.8774C33.9401 2 35.6121 3.43269 35.6121 5.2V8.4" stroke="#A162C7" stroke-width="2.6" stroke-linecap="round" stroke-linejoin="round"/>
<path d="M20.6734 14.8V5.2C20.6734 3.43269 19.0014 2 16.9388 2H9.46942C7.40682 2 5.73475 3.43269 5.73475 5.2V8.4" stroke="#A162C7" stroke-width="2.6" stroke-linecap="round" stroke-linejoin="round"/>
<path d="M35.6121 8.39996C33.5494 8.39996 31.8774 9.83265 31.8774 11.6V14.8H9.4694V11.6C9.4694 9.83265 7.79733 8.39996 5.73473 8.39996C3.67213 8.39996 2.00006 9.83265 2.00006 11.6V21.2H39.3467V11.6C39.3467 9.83265 37.6747 8.39996 35.6121 8.39996Z" stroke="#A162C7" stroke-width="2.6" stroke-linecap="round" stroke-linejoin="round"/>
<path d="M39.3467 19.6V24.4" stroke="#A162C7" stroke-width="2.6" stroke-linecap="round" stroke-linejoin="round"/>
</svg>
