<svg width="149" height="49" viewBox="0 0 149 49" fill="none" xmlns="http://www.w3.org/2000/svg">
<path d="M4.80903 15.5209C4.17112 15.5209 3.59793 15.41 3.08946 15.1881C2.59023 14.957 2.19731 14.6426 1.91072 14.2451C1.62413 13.8383 1.47621 13.3714 1.46696 12.8445H2.81211C2.85833 13.2975 3.04323 13.6811 3.36681 13.9955C3.69963 14.3006 4.18037 14.4531 4.80903 14.4531C5.40995 14.4531 5.88144 14.3052 6.22351 14.0093C6.57482 13.7043 6.75047 13.316 6.75047 12.8445C6.75047 12.4747 6.64878 12.1742 6.44539 11.9431C6.242 11.712 5.98776 11.5363 5.68268 11.4161C5.37759 11.2959 4.96619 11.1665 4.44847 11.0278C3.81057 10.8614 3.29747 10.695 2.90918 10.5286C2.53013 10.3622 2.20194 10.1033 1.92459 9.75203C1.65648 9.39147 1.52243 8.91073 1.52243 8.30981C1.52243 7.78284 1.65648 7.31597 1.92459 6.90919C2.19269 6.50241 2.56711 6.18808 3.04785 5.9662C3.53784 5.74432 4.09716 5.63338 4.72582 5.63338C5.63183 5.63338 6.37143 5.85988 6.94462 6.31289C7.52705 6.76589 7.85525 7.36682 7.92921 8.11566H6.54246C6.49624 7.74586 6.30209 7.42229 5.96003 7.14494C5.61796 6.85834 5.16496 6.71505 4.60101 6.71505C4.07405 6.71505 3.64416 6.85372 3.31134 7.13107C2.97852 7.39917 2.81211 7.77822 2.81211 8.2682C2.81211 8.61951 2.90918 8.90611 3.10332 9.12799C3.30671 9.34987 3.55171 9.5209 3.8383 9.64109C4.13414 9.75203 4.54554 9.88146 5.07251 10.0294C5.71041 10.205 6.22351 10.3807 6.6118 10.5563C7.00009 10.7227 7.33291 10.9862 7.61026 11.3468C7.88761 11.6981 8.02628 12.1788 8.02628 12.789C8.02628 13.2605 7.90148 13.7043 7.65186 14.1203C7.40225 14.5363 7.03245 14.8738 6.54246 15.1326C6.05248 15.3915 5.47466 15.5209 4.80903 15.5209ZM16.8171 11.3329C16.8171 11.5733 16.8032 11.8275 16.7755 12.0956H10.7015C10.7477 12.8445 11.002 13.4315 11.4642 13.8568C11.9357 14.2728 12.5043 14.4808 13.1699 14.4808C13.7154 14.4808 14.1684 14.356 14.5289 14.1064C14.8987 13.8476 15.1576 13.5055 15.3055 13.0802H16.6645C16.4611 13.8106 16.0544 14.4069 15.4442 14.8691C14.834 15.3221 14.0759 15.5486 13.1699 15.5486C12.4488 15.5486 11.8017 15.3868 11.2285 15.0633C10.6645 14.7397 10.2208 14.2821 9.8972 13.6904C9.57363 13.0895 9.41184 12.3961 9.41184 11.6103C9.41184 10.8244 9.569 10.1357 9.88333 9.54401C10.1977 8.95233 10.6368 8.49933 11.2007 8.185C11.7739 7.86142 12.4303 7.69964 13.1699 7.69964C13.891 7.69964 14.5289 7.8568 15.0836 8.17113C15.6383 8.48546 16.0636 8.91998 16.3595 9.47468C16.6645 10.0201 16.8171 10.6395 16.8171 11.3329ZM15.5135 11.0694C15.5135 10.5887 15.4072 10.1773 15.1946 9.83523C14.9819 9.48392 14.6907 9.22044 14.3209 9.04478C13.9604 8.85988 13.5582 8.76743 13.1145 8.76743C12.4766 8.76743 11.9311 8.97082 11.4781 9.3776C11.0343 9.78438 10.7801 10.3483 10.7154 11.0694H15.5135ZM18.0113 11.6103C18.0113 10.8244 18.1685 10.1403 18.4828 9.55788C18.7971 8.9662 19.2316 8.50857 19.7863 8.185C20.3503 7.86142 20.9928 7.69964 21.7139 7.69964C22.6477 7.69964 23.415 7.92614 24.0159 8.37914C24.6261 8.83215 25.0283 9.46081 25.2224 10.2651H23.8634C23.734 9.80287 23.4797 9.4377 23.1007 9.16959C22.7309 8.90149 22.2686 8.76743 21.7139 8.76743C20.9928 8.76743 20.4104 9.01705 19.9666 9.51628C19.5229 10.0063 19.301 10.7043 19.301 11.6103C19.301 12.5255 19.5229 13.2328 19.9666 13.732C20.4104 14.2312 20.9928 14.4808 21.7139 14.4808C22.2686 14.4808 22.7309 14.3514 23.1007 14.0925C23.4705 13.8337 23.7247 13.4639 23.8634 12.9832H25.2224C25.019 13.7597 24.6122 14.3838 24.0021 14.8553C23.3919 15.3175 22.6292 15.5486 21.7139 15.5486C20.9928 15.5486 20.3503 15.3868 19.7863 15.0633C19.2316 14.7397 18.7971 14.2821 18.4828 13.6904C18.1685 13.0987 18.0113 12.4053 18.0113 11.6103ZM33.6458 7.82444V15.4238H32.3839V14.3006C32.1435 14.6889 31.8061 14.9939 31.3715 15.2158C30.9463 15.4285 30.4748 15.5348 29.9571 15.5348C29.3654 15.5348 28.8338 15.4146 28.3623 15.1742C27.8908 14.9246 27.5164 14.5548 27.239 14.0648C26.9709 13.5748 26.8369 12.9785 26.8369 12.2759V7.82444H28.085V12.1095C28.085 12.8583 28.2745 13.4362 28.6535 13.8429C29.0326 14.2405 29.5503 14.4392 30.2067 14.4392C30.8816 14.4392 31.4132 14.2312 31.8014 13.8152C32.1897 13.3992 32.3839 12.7936 32.3839 11.9986V7.82444H33.6458ZM37.0385 9.05865C37.2604 8.62414 37.5747 8.28669 37.9815 8.04632C38.3975 7.80595 38.9013 7.68577 39.493 7.68577V8.98931H39.1602C37.7457 8.98931 37.0385 9.75665 37.0385 11.2913V15.4238H35.7765V7.82444H37.0385V9.05865ZM47.8835 11.3329C47.8835 11.5733 47.8696 11.8275 47.8419 12.0956H41.7679C41.8142 12.8445 42.0684 13.4315 42.5306 13.8568C43.0021 14.2728 43.5707 14.4808 44.2363 14.4808C44.7818 14.4808 45.2348 14.356 45.5954 14.1064C45.9652 13.8476 46.224 13.5055 46.3719 13.0802H47.731C47.5276 13.8106 47.1208 14.4069 46.5106 14.8691C45.9004 15.3221 45.1424 15.5486 44.2363 15.5486C43.5152 15.5486 42.8681 15.3868 42.2949 15.0633C41.731 14.7397 41.2872 14.2821 40.9636 13.6904C40.64 13.0895 40.4783 12.3961 40.4783 11.6103C40.4783 10.8244 40.6354 10.1357 40.9498 9.54401C41.2641 8.95233 41.7032 8.49933 42.2672 8.185C42.8404 7.86142 43.4968 7.69964 44.2363 7.69964C44.9575 7.69964 45.5954 7.8568 46.1501 8.17113C46.7048 8.48546 47.13 8.91998 47.4259 9.47468C47.731 10.0201 47.8835 10.6395 47.8835 11.3329ZM46.58 11.0694C46.58 10.5887 46.4736 10.1773 46.261 9.83523C46.0484 9.48392 45.7572 9.22044 45.3874 9.04478C45.0268 8.85988 44.6246 8.76743 44.1809 8.76743C43.543 8.76743 42.9975 8.97082 42.5445 9.3776C42.1008 9.78438 41.8465 10.3483 41.7818 11.0694H46.58ZM52.7748 10.5841C52.7748 9.64109 52.9875 8.79517 53.4127 8.04632C53.838 7.28823 54.4158 6.69656 55.1462 6.27129C55.8858 5.84602 56.7039 5.63338 57.6007 5.63338C58.6546 5.63338 59.5745 5.88762 60.3603 6.39609C61.1462 6.90457 61.7194 7.62568 62.0799 8.55942H60.5684C60.3002 7.97699 59.912 7.5286 59.4035 7.21428C58.9043 6.89995 58.3033 6.74278 57.6007 6.74278C56.9258 6.74278 56.3203 6.89995 55.7841 7.21428C55.2479 7.5286 54.8272 7.97699 54.5221 8.55942C54.217 9.13261 54.0645 9.8075 54.0645 10.5841C54.0645 11.3514 54.217 12.0263 54.5221 12.6087C54.8272 13.1819 55.2479 13.6257 55.7841 13.94C56.3203 14.2543 56.9258 14.4115 57.6007 14.4115C58.3033 14.4115 58.9043 14.259 59.4035 13.9539C59.912 13.6395 60.3002 13.1912 60.5684 12.6087H62.0799C61.7194 13.5332 61.1462 14.2497 60.3603 14.7582C59.5745 15.2574 58.6546 15.507 57.6007 15.507C56.7039 15.507 55.8858 15.299 55.1462 14.883C54.4158 14.4577 53.838 13.8707 53.4127 13.1218C52.9875 12.373 52.7748 11.5271 52.7748 10.5841ZM67.7304 7.68577C68.3036 7.68577 68.8213 7.81058 69.2835 8.06019C69.7458 8.30056 70.1063 8.66574 70.3652 9.15572C70.6333 9.64571 70.7673 10.242 70.7673 10.9446V15.4238H69.5193V11.1249C69.5193 10.3668 69.3298 9.78901 68.9507 9.39147C68.5717 8.98469 68.0539 8.7813 67.3975 8.7813C66.7319 8.7813 66.2003 8.98931 65.8028 9.40534C65.4145 9.82136 65.2204 10.4269 65.2204 11.222V15.4238H63.9584V5.16189H65.2204V8.90611C65.47 8.51782 65.812 8.21736 66.2465 8.00472C66.6903 7.79209 67.1849 7.68577 67.7304 7.68577ZM79.7625 11.3329C79.7625 11.5733 79.7486 11.8275 79.7209 12.0956H73.6469C73.6931 12.8445 73.9474 13.4315 74.4096 13.8568C74.8811 14.2728 75.4497 14.4808 76.1153 14.4808C76.6608 14.4808 77.1138 14.356 77.4743 14.1064C77.8441 13.8476 78.103 13.5055 78.2509 13.0802H79.6099C79.4065 13.8106 78.9998 14.4069 78.3896 14.8691C77.7794 15.3221 77.0213 15.5486 76.1153 15.5486C75.3942 15.5486 74.7471 15.3868 74.1739 15.0633C73.6099 14.7397 73.1662 14.2821 72.8426 13.6904C72.519 13.0895 72.3572 12.3961 72.3572 11.6103C72.3572 10.8244 72.5144 10.1357 72.8287 9.54401C73.1431 8.95233 73.5822 8.49933 74.1461 8.185C74.7193 7.86142 75.3757 7.69964 76.1153 7.69964C76.8364 7.69964 77.4743 7.8568 78.029 8.17113C78.5837 8.48546 79.009 8.91998 79.3048 9.47468C79.6099 10.0201 79.7625 10.6395 79.7625 11.3329ZM78.4589 11.0694C78.4589 10.5887 78.3526 10.1773 78.14 9.83523C77.9273 9.48392 77.6361 9.22044 77.2663 9.04478C76.9058 8.85988 76.5036 8.76743 76.0599 8.76743C75.4219 8.76743 74.8765 8.97082 74.4235 9.3776C73.9797 9.78438 73.7255 10.3483 73.6608 11.0694H78.4589ZM80.9567 11.6103C80.9567 10.8244 81.1139 10.1403 81.4282 9.55788C81.7425 8.9662 82.177 8.50857 82.7317 8.185C83.2957 7.86142 83.9382 7.69964 84.6593 7.69964C85.5931 7.69964 86.3604 7.92614 86.9613 8.37914C87.5715 8.83215 87.9736 9.46081 88.1678 10.2651H86.8088C86.6793 9.80287 86.4251 9.4377 86.0461 9.16959C85.6763 8.90149 85.214 8.76743 84.6593 8.76743C83.9382 8.76743 83.3558 9.01705 82.912 9.51628C82.4683 10.0063 82.2464 10.7043 82.2464 11.6103C82.2464 12.5255 82.4683 13.2328 82.912 13.732C83.3558 14.2312 83.9382 14.4808 84.6593 14.4808C85.214 14.4808 85.6763 14.3514 86.0461 14.0925C86.4159 13.8337 86.6701 13.4639 86.8088 12.9832H88.1678C87.9644 13.7597 87.5576 14.3838 86.9475 14.8553C86.3373 15.3175 85.5746 15.5486 84.6593 15.5486C83.9382 15.5486 83.2957 15.3868 82.7317 15.0633C82.177 14.7397 81.7425 14.2821 81.4282 13.6904C81.1139 13.0987 80.9567 12.4053 80.9567 11.6103ZM94.0951 15.4238L91.1136 12.0679V15.4238H89.8516V5.16189H91.1136V11.1942L94.0396 7.82444H95.8008L92.223 11.6103L95.8146 15.4238H94.0951ZM100.303 15.5486C99.591 15.5486 98.9438 15.3868 98.3614 15.0633C97.7882 14.7397 97.3352 14.2821 97.0024 13.6904C96.6788 13.0895 96.517 12.3961 96.517 11.6103C96.517 10.8337 96.6834 10.1496 97.0162 9.55788C97.3583 8.95696 97.8205 8.49933 98.403 8.185C98.9854 7.86142 99.6372 7.69964 100.358 7.69964C101.079 7.69964 101.731 7.86142 102.314 8.185C102.896 8.49933 103.354 8.95233 103.686 9.54401C104.029 10.1357 104.2 10.8244 104.2 11.6103C104.2 12.3961 104.024 13.0895 103.673 13.6904C103.331 14.2821 102.864 14.7397 102.272 15.0633C101.68 15.3868 101.024 15.5486 100.303 15.5486ZM100.303 14.4392C100.756 14.4392 101.181 14.3329 101.579 14.1203C101.976 13.9076 102.295 13.5887 102.535 13.1634C102.785 12.7382 102.91 12.2204 102.91 11.6103C102.91 11.0001 102.79 10.4824 102.549 10.0571C102.309 9.63184 101.995 9.31751 101.606 9.11412C101.218 8.90149 100.797 8.79517 100.344 8.79517C99.8822 8.79517 99.4569 8.90149 99.0686 9.11412C98.6896 9.31751 98.3845 9.63184 98.1534 10.0571C97.9222 10.4824 97.8067 11.0001 97.8067 11.6103C97.8067 12.2297 97.9176 12.752 98.1395 13.1773C98.3706 13.6026 98.6757 13.9215 99.0547 14.1342C99.4338 14.3375 99.8498 14.4392 100.303 14.4392ZM112.598 7.82444V15.4238H111.336V14.3006C111.096 14.6889 110.759 14.9939 110.324 15.2158C109.899 15.4285 109.427 15.5348 108.91 15.5348C108.318 15.5348 107.786 15.4146 107.315 15.1742C106.843 14.9246 106.469 14.5548 106.192 14.0648C105.924 13.5748 105.789 12.9785 105.789 12.2759V7.82444H107.038V12.1095C107.038 12.8583 107.227 13.4362 107.606 13.8429C107.985 14.2405 108.503 14.4392 109.159 14.4392C109.834 14.4392 110.366 14.2312 110.754 13.8152C111.142 13.3992 111.336 12.7936 111.336 11.9986V7.82444H112.598ZM116.268 8.86451V13.3437C116.268 13.7135 116.347 13.977 116.504 14.1342C116.661 14.2821 116.934 14.356 117.322 14.356H118.251V15.4238H117.114C116.412 15.4238 115.885 15.262 115.533 14.9385C115.182 14.6149 115.006 14.0833 115.006 13.3437V8.86451H114.022V7.82444H115.006V5.91073H116.268V7.82444H118.251V8.86451H116.268Z" fill="#909090"/>
<path d="M29.5456 42.6842C28.8984 42.6842 28.316 42.5733 27.7983 42.3514C27.2806 42.1203 26.8738 41.7967 26.5779 41.3807C26.2821 40.9647 26.1342 40.4793 26.1342 39.9246H27.826C27.863 40.3406 28.0248 40.6827 28.3114 40.9508C28.6072 41.2189 29.0186 41.353 29.5456 41.353C30.091 41.353 30.5163 41.2235 30.8214 40.9647C31.1265 40.6966 31.279 40.3545 31.279 39.9385C31.279 39.6149 31.182 39.3514 30.9878 39.148C30.8029 38.9446 30.5672 38.7875 30.2806 38.6765C30.0032 38.5656 29.6149 38.4454 29.1157 38.316C28.487 38.1496 27.9739 37.9832 27.5764 37.8167C27.1881 37.6411 26.8553 37.373 26.5779 37.0124C26.3006 36.6519 26.1619 36.1711 26.1619 35.5702C26.1619 35.0155 26.3006 34.5301 26.5779 34.1141C26.8553 33.6981 27.2436 33.3791 27.7428 33.1573C28.242 32.9354 28.8199 32.8244 29.4763 32.8244C30.41 32.8244 31.1727 33.0602 31.7644 33.5317C32.3653 33.9939 32.6981 34.6318 32.7628 35.4454H31.0155C30.9878 35.0941 30.8214 34.7936 30.5163 34.544C30.2112 34.2944 29.8091 34.1696 29.3098 34.1696C28.8568 34.1696 28.487 34.2852 28.2004 34.5163C27.9138 34.7474 27.7706 35.0802 27.7706 35.5147C27.7706 35.8106 27.8584 36.0556 28.034 36.2497C28.2189 36.4346 28.4501 36.5825 28.7274 36.6935C29.0048 36.8044 29.3838 36.9246 29.8645 37.054C30.5024 37.2297 31.0202 37.4053 31.4177 37.581C31.8245 37.7566 32.1665 38.0294 32.4439 38.3992C32.7305 38.7597 32.8738 39.2451 32.8738 39.8553C32.8738 40.3452 32.7397 40.8075 32.4716 41.242C32.2128 41.6765 31.8291 42.0278 31.3206 42.2959C30.8214 42.5548 30.2297 42.6842 29.5456 42.6842ZM41.7423 38.5795C41.7423 38.866 41.7238 39.1249 41.6868 39.356H35.8486C35.8948 39.9662 36.1213 40.4562 36.5281 40.826C36.9349 41.1958 37.4341 41.3807 38.0258 41.3807C38.8763 41.3807 39.4772 41.0248 39.8285 40.3129H41.5343C41.3031 41.0155 40.8825 41.5933 40.2723 42.0463C39.6714 42.4901 38.9225 42.712 38.0258 42.712C37.2954 42.712 36.639 42.5502 36.0566 42.2266C35.4834 41.8938 35.0304 41.4315 34.6976 40.8399C34.374 40.2389 34.2122 39.5456 34.2122 38.7597C34.2122 37.9739 34.3694 37.2852 34.6837 36.6935C35.0073 36.0926 35.4557 35.6303 36.0289 35.3067C36.6113 34.9832 37.2769 34.8214 38.0258 34.8214C38.7469 34.8214 39.3894 34.9785 39.9534 35.2929C40.5173 35.6072 40.9564 36.0509 41.2708 36.6241C41.5851 37.1881 41.7423 37.8399 41.7423 38.5795ZM40.092 38.0802C40.0828 37.4978 39.8748 37.0309 39.468 36.6796C39.0612 36.3283 38.5574 36.1526 37.9564 36.1526C37.411 36.1526 36.9441 36.3283 36.5558 36.6796C36.1675 37.0217 35.9364 37.4885 35.8624 38.0802H40.092ZM42.7711 38.7597C42.7711 37.9739 42.9282 37.2852 43.2426 36.6935C43.5661 36.0926 44.0099 35.6303 44.5738 35.3067C45.1378 34.9832 45.7849 34.8214 46.5153 34.8214C47.4398 34.8214 48.2025 35.0432 48.8034 35.487C49.4136 35.9215 49.825 36.5456 50.0376 37.3591H48.3319C48.1932 36.9801 47.9714 36.6842 47.6663 36.4716C47.3612 36.259 46.9775 36.1526 46.5153 36.1526C45.8681 36.1526 45.3504 36.3838 44.9621 36.846C44.5831 37.299 44.3936 37.9369 44.3936 38.7597C44.3936 39.5825 44.5831 40.2251 44.9621 40.6873C45.3504 41.1496 45.8681 41.3807 46.5153 41.3807C47.4305 41.3807 48.0361 40.9785 48.3319 40.1742H50.0376C49.8157 40.9508 49.3997 41.5702 48.7895 42.0325C48.1794 42.4855 47.4213 42.712 46.5153 42.712C45.7849 42.712 45.1378 42.5502 44.5738 42.2266C44.0099 41.8938 43.5661 41.4315 43.2426 40.8399C42.9282 40.2389 42.7711 39.5456 42.7711 38.7597ZM58.533 34.9462V42.5872H56.9521V41.6858C56.7025 42.0001 56.3743 42.2497 55.9675 42.4346C55.57 42.6103 55.1447 42.6981 54.6917 42.6981C54.0908 42.6981 53.5499 42.5733 53.0692 42.3237C52.5977 42.0741 52.2233 41.7043 51.9459 41.2143C51.6778 40.7243 51.5438 40.1326 51.5438 39.4392V34.9462H53.1108V39.2035C53.1108 39.8876 53.2818 40.4146 53.6239 40.7844C53.9659 41.1449 54.4328 41.3252 55.0245 41.3252C55.6162 41.3252 56.083 41.1449 56.4251 40.7844C56.7764 40.4146 56.9521 39.8876 56.9521 39.2035V34.9462H58.533ZM62.1997 36.0556C62.4309 35.6673 62.7359 35.3668 63.115 35.1542C63.5033 34.9323 63.9609 34.8214 64.4879 34.8214V36.4577H64.0857C63.4663 36.4577 62.9948 36.6149 62.6712 36.9292C62.3569 37.2436 62.1997 37.789 62.1997 38.5656V42.5872H60.6188V34.9462H62.1997V36.0556ZM72.9441 38.5795C72.9441 38.866 72.9256 39.1249 72.8886 39.356H67.0504C67.0967 39.9662 67.3232 40.4562 67.7299 40.826C68.1367 41.1958 68.6359 41.3807 69.2276 41.3807C70.0782 41.3807 70.6791 41.0248 71.0304 40.3129H72.7361C72.505 41.0155 72.0843 41.5933 71.4742 42.0463C70.8732 42.4901 70.1244 42.712 69.2276 42.712C68.4973 42.712 67.8409 42.5502 67.2584 42.2266C66.6853 41.8938 66.2322 41.4315 65.8994 40.8399C65.5759 40.2389 65.4141 39.5456 65.4141 38.7597C65.4141 37.9739 65.5712 37.2852 65.8856 36.6935C66.2091 36.0926 66.6575 35.6303 67.2307 35.3067C67.8131 34.9832 68.4788 34.8214 69.2276 34.8214C69.9487 34.8214 70.5913 34.9785 71.1552 35.2929C71.7192 35.6072 72.1583 36.0509 72.4726 36.6241C72.7869 37.1881 72.9441 37.8399 72.9441 38.5795ZM71.2939 38.0802C71.2846 37.4978 71.0766 37.0309 70.6698 36.6796C70.2631 36.3283 69.7592 36.1526 69.1583 36.1526C68.6128 36.1526 68.146 36.3283 67.7577 36.6796C67.3694 37.0217 67.1383 37.4885 67.0643 38.0802H71.2939ZM84.8418 35.8198C84.8418 36.3098 84.7262 36.7721 84.4951 37.2066C84.264 37.6411 83.8942 37.997 83.3857 38.2744C82.8772 38.5425 82.2254 38.6765 81.4304 38.6765H79.6831V42.5872H78.1022V32.9493H81.4304C82.17 32.9493 82.794 33.0787 83.3025 33.3375C83.8202 33.5872 84.2039 33.9292 84.4535 34.3637C84.7123 34.7983 84.8418 35.2836 84.8418 35.8198ZM81.4304 37.3868C82.0313 37.3868 82.4797 37.2528 82.7755 36.9847C83.0714 36.7073 83.2193 36.3191 83.2193 35.8198C83.2193 34.7659 82.623 34.2389 81.4304 34.2389H79.6831V37.3868H81.4304ZM85.8226 38.732C85.8226 37.9647 85.9797 37.2852 86.2941 36.6935C86.6176 36.1018 87.0521 35.6442 87.5976 35.3206C88.1523 34.9878 88.7625 34.8214 89.4281 34.8214C90.029 34.8214 90.5514 34.9415 90.9951 35.1819C91.4481 35.413 91.8087 35.7043 92.0768 36.0556V34.9462H93.6716V42.5872H92.0768V41.45C91.8087 41.8106 91.4435 42.111 90.9813 42.3514C90.519 42.5918 89.9921 42.712 89.4004 42.712C88.744 42.712 88.1431 42.5456 87.5976 42.2127C87.0521 41.8707 86.6176 41.3992 86.2941 40.7983C85.9797 40.1881 85.8226 39.4993 85.8226 38.732ZM92.0768 38.7597C92.0768 38.2328 91.9659 37.7751 91.744 37.3868C91.5313 36.9986 91.2494 36.7027 90.8981 36.4993C90.5468 36.2959 90.1677 36.1942 89.7609 36.1942C89.3541 36.1942 88.9751 36.2959 88.6238 36.4993C88.2725 36.6935 87.9859 36.9847 87.764 37.373C87.5514 37.752 87.4451 38.205 87.4451 38.732C87.4451 39.259 87.5514 39.7212 87.764 40.1187C87.9859 40.5163 88.2725 40.8214 88.6238 41.034C88.9843 41.2374 89.3634 41.3391 89.7609 41.3391C90.1677 41.3391 90.5468 41.2374 90.8981 41.034C91.2494 40.8306 91.5313 40.5348 91.744 40.1465C91.9659 39.7489 92.0768 39.2867 92.0768 38.7597ZM102.626 34.9462L97.9391 46.1788H96.3027L97.8559 42.4624L94.8466 34.9462H96.6078L98.7572 40.7705L100.99 34.9462H102.626ZM113.069 34.8214C113.67 34.8214 114.206 34.9462 114.678 35.1958C115.158 35.4454 115.533 35.8152 115.801 36.3052C116.078 36.7952 116.217 37.3869 116.217 38.0802V42.5872H114.65V38.316C114.65 37.6318 114.479 37.1095 114.137 36.7489C113.795 36.3791 113.328 36.1942 112.736 36.1942C112.144 36.1942 111.673 36.3791 111.322 36.7489C110.98 37.1095 110.809 37.6318 110.809 38.316V42.5872H109.242V38.316C109.242 37.6318 109.07 37.1095 108.728 36.7489C108.386 36.3791 107.919 36.1942 107.328 36.1942C106.736 36.1942 106.265 36.3791 105.913 36.7489C105.571 37.1095 105.4 37.6318 105.4 38.316V42.5872H103.819V34.9462H105.4V35.8198C105.659 35.5055 105.987 35.2605 106.385 35.0848C106.782 34.9092 107.208 34.8214 107.661 34.8214C108.271 34.8214 108.816 34.9508 109.297 35.2097C109.778 35.4685 110.148 35.8429 110.406 36.3329C110.637 35.8707 110.998 35.5055 111.488 35.2374C111.978 34.96 112.505 34.8214 113.069 34.8214ZM125.232 38.5795C125.232 38.866 125.213 39.1249 125.176 39.356H119.338C119.384 39.9662 119.611 40.4562 120.017 40.826C120.424 41.1958 120.923 41.3807 121.515 41.3807C122.366 41.3807 122.967 41.0248 123.318 40.3129H125.024C124.792 41.0155 124.372 41.5933 123.762 42.0463C123.161 42.4901 122.412 42.712 121.515 42.712C120.785 42.712 120.128 42.5502 119.546 42.2266C118.973 41.8938 118.52 41.4315 118.187 40.8399C117.863 40.2389 117.702 39.5456 117.702 38.7597C117.702 37.9739 117.859 37.2852 118.173 36.6935C118.497 36.0926 118.945 35.6303 119.518 35.3067C120.101 34.9832 120.766 34.8214 121.515 34.8214C122.236 34.8214 122.879 34.9785 123.443 35.2929C124.007 35.6072 124.446 36.0509 124.76 36.6241C125.074 37.1881 125.232 37.8399 125.232 38.5795ZM123.581 38.0802C123.572 37.4978 123.364 37.0309 122.957 36.6796C122.551 36.3283 122.047 36.1526 121.446 36.1526C120.9 36.1526 120.433 36.3283 120.045 36.6796C119.657 37.0217 119.426 37.4885 119.352 38.0802H123.581ZM130.643 34.8214C131.243 34.8214 131.78 34.9462 132.251 35.1958C132.732 35.4454 133.106 35.8152 133.374 36.3052C133.643 36.7952 133.777 37.3869 133.777 38.0802V42.5872H132.21V38.316C132.21 37.6318 132.038 37.1095 131.696 36.7489C131.354 36.3791 130.887 36.1942 130.296 36.1942C129.704 36.1942 129.233 36.3791 128.881 36.7489C128.539 37.1095 128.368 37.6318 128.368 38.316V42.5872H126.787V34.9462H128.368V35.8198C128.627 35.5055 128.955 35.2605 129.353 35.0848C129.76 34.9092 130.189 34.8214 130.643 34.8214ZM137.637 36.2358V40.4654C137.637 40.752 137.702 40.96 137.832 41.0895C137.97 41.2097 138.201 41.2697 138.525 41.2697H139.496V42.5872H138.248C137.536 42.5872 136.99 42.4207 136.611 42.0879C136.232 41.7551 136.043 41.2143 136.043 40.4654V36.2358H135.141V34.9462H136.043V33.0463H137.637V34.9462H139.496V36.2358H137.637ZM143.726 42.712C143.125 42.712 142.585 42.6056 142.104 42.393C141.632 42.1711 141.258 41.8753 140.98 41.5055C140.703 41.1264 140.555 40.7058 140.537 40.2436H142.173C142.201 40.5671 142.353 40.8399 142.631 41.0617C142.917 41.2744 143.273 41.3807 143.699 41.3807C144.142 41.3807 144.484 41.2975 144.725 41.1311C144.974 40.9554 145.099 40.7335 145.099 40.4654C145.099 40.1788 144.96 39.9662 144.683 39.8275C144.415 39.6889 143.985 39.5363 143.393 39.3699C142.82 39.2127 142.353 39.0602 141.993 38.9123C141.632 38.7644 141.318 38.5379 141.05 38.2328C140.791 37.9277 140.662 37.5255 140.662 37.0263C140.662 36.6195 140.782 36.2497 141.022 35.9169C141.262 35.5748 141.605 35.3067 142.048 35.1126C142.501 34.9184 143.019 34.8214 143.601 34.8214C144.47 34.8214 145.168 35.0432 145.695 35.487C146.232 35.9215 146.518 36.5178 146.555 37.2759H144.974C144.947 36.9338 144.808 36.6611 144.558 36.4577C144.309 36.2543 143.971 36.1526 143.546 36.1526C143.13 36.1526 142.811 36.2312 142.589 36.3884C142.367 36.5456 142.256 36.7536 142.256 37.0124C142.256 37.2158 142.33 37.3868 142.478 37.5255C142.626 37.6642 142.806 37.7751 143.019 37.8583C143.232 37.9323 143.546 38.0294 143.962 38.1496C144.517 38.2975 144.97 38.45 145.321 38.6072C145.682 38.7551 145.991 38.977 146.25 39.2728C146.509 39.5687 146.643 39.9616 146.652 40.4516C146.652 40.8861 146.532 41.2744 146.292 41.6164C146.051 41.9585 145.709 42.2266 145.266 42.4207C144.831 42.6149 144.318 42.712 143.726 42.712Z" fill="#999999"/>
<g clip-path="url(#clip0_0_249)">
<path d="M7.92333 28.3044C8.59572 27.5662 9.75728 27.5662 10.4297 28.3044L11.2943 29.2538C11.634 29.6269 12.1224 29.8292 12.6266 29.8057L13.9093 29.7457C14.9067 29.6991 15.7281 30.5205 15.6815 31.518L15.6215 32.8007C15.598 33.3048 15.8003 33.7931 16.1734 34.1329L17.1228 34.9975C17.8611 35.6699 17.8611 36.8315 17.1228 37.5039L16.1734 38.3685C15.8003 38.7083 15.598 39.1967 15.6215 39.7008L15.6815 40.9835C15.7281 41.9809 14.9067 42.8024 13.9093 42.7558L12.6266 42.6958C12.1224 42.6722 11.634 42.8745 11.2943 43.2476L10.4297 44.197C9.75728 44.9353 8.59572 44.9353 7.92333 44.197L7.05873 43.2476C6.71893 42.8745 6.23054 42.6722 5.72643 42.6958L4.44375 42.7558C3.44629 42.8024 2.62489 41.9809 2.67151 40.9835L2.73145 39.7008C2.75501 39.1967 2.55271 38.7083 2.17959 38.3685L1.23022 37.5039C0.491946 36.8315 0.491946 35.6699 1.23022 34.9975L2.17959 34.1329C2.55271 33.7931 2.75501 33.3048 2.73145 32.8007L2.67151 31.518C2.62489 30.5205 3.44629 29.6991 4.44376 29.7457L5.72643 29.8057C6.23054 29.8292 6.71893 29.6269 7.05873 29.2538L7.92333 28.3044Z" stroke="#6D2E93" stroke-width="1.4"/>
<path d="M6.63405 36.2509L8.32902 37.9458L11.719 34.5559" stroke="#6D2E93" stroke-width="1.4" stroke-linecap="round" stroke-linejoin="round"/>
</g>
<defs>
<clipPath id="clip0_0_249">
<rect width="18.49" height="18.49" fill="white" transform="translate(0.676514 27.5872)"/>
</clipPath>
</defs>
</svg>
