<svg width="30" height="27" viewBox="0 0 30 27" fill="none" xmlns="http://www.w3.org/2000/svg">
<path d="M16.7491 5.65491C16.9901 6.33519 16.953 7.08375 16.6444 7.73705C15.9343 9.24131 15.2744 10.7813 14.5088 12.2598C14.3321 12.5951 13.9124 12.7338 13.5713 12.5696L9.09224 10.4128C7.73839 9.76091 7.1633 8.13778 7.80471 6.77892C8.45244 5.40669 10.0937 4.82519 11.4608 5.48355L11.6236 5.56192L11.7007 5.39861C12.0112 4.74041 12.5718 4.23263 13.2589 3.98917C13.9462 3.74567 14.7013 3.78726 15.3569 4.10314C16.0079 4.4165 16.5081 4.97467 16.7491 5.65491Z" fill="#6D2E93" stroke="white" stroke-width="2" stroke-linejoin="round"/>
<path d="M24.5097 20.3724L27.3027 14.5141C27.3849 14.3418 27.3952 14.1439 27.3314 13.9639L25.2269 8.02392C24.8949 7.08688 23.8661 6.59641 22.9291 6.9284C21.9921 7.26039 21.5016 8.28915 21.8336 9.22619L23.637 14.3162" fill="#6D2E93"/>
<path d="M24.5097 20.3724L27.3027 14.5141C27.3849 14.3418 27.3952 14.1439 27.3314 13.9639L25.2269 8.02392C24.8949 7.08688 23.8661 6.59641 22.9291 6.9284C21.9921 7.26039 21.5016 8.28915 21.8336 9.22619L23.637 14.3162" stroke="white" stroke-width="2" stroke-linecap="round" stroke-linejoin="round"/>
<path d="M22.9068 15.848L23.5335 14.5335C23.5999 14.3943 23.6082 14.2345 23.5567 14.0892C23.4832 13.8817 23.2987 13.7335 23.0802 13.7064L22.4905 13.6335C21.4654 13.5066 20.4739 14.05 20.0293 14.9824L19.3758 16.3533C19.1018 16.9279 19.0673 17.5877 19.2799 18.1877L20.551 21.7751" fill="#6D2E93"/>
<path d="M22.9068 15.848L23.5335 14.5335C23.5999 14.3943 23.6082 14.2345 23.5567 14.0892C23.4832 13.8817 23.2987 13.7335 23.0802 13.7064L22.4905 13.6335C21.4654 13.5066 20.4739 14.05 20.0293 14.9824L19.3758 16.3533C19.1018 16.9279 19.0673 17.5877 19.2799 18.1877L20.551 21.7751" stroke="white" stroke-width="2" stroke-linecap="round" stroke-linejoin="round"/>
<path d="M10.9365 25.1815L5.07823 22.3884C4.90586 22.3062 4.77321 22.159 4.70944 21.979L2.60486 16.039C2.27286 15.102 2.76334 14.0732 3.70038 13.7412C4.63742 13.4092 5.66617 13.8997 5.99817 14.8368L7.80158 19.9267" fill="#6D2E93"/>
<path d="M10.9365 25.1815L5.07823 22.3884C4.90586 22.3062 4.77321 22.159 4.70944 21.979L2.60486 16.039C2.27286 15.102 2.76334 14.0732 3.70038 13.7412C4.63742 13.4092 5.66617 13.8997 5.99817 14.8368L7.80158 19.9267" stroke="white" stroke-width="2" stroke-linecap="round" stroke-linejoin="round"/>
<path d="M9.33348 20.6571L8.01896 20.0304C7.87978 19.964 7.77269 19.8451 7.72123 19.6999C7.64769 19.4923 7.69773 19.2611 7.85044 19.1025L8.26269 18.6745C8.97932 17.9305 10.0917 17.7285 11.0241 18.173L12.395 18.8266C12.9696 19.1006 13.4118 19.5915 13.6243 20.1915L14.8954 23.7789" fill="#6D2E93"/>
<path d="M9.33348 20.6571L8.01896 20.0304C7.87978 19.964 7.77269 19.8451 7.72123 19.6999C7.64769 19.4923 7.69773 19.2611 7.85044 19.1025L8.26269 18.6745C8.97932 17.9305 10.0917 17.7285 11.0241 18.173L12.395 18.8266C12.9696 19.1006 13.4118 19.5915 13.6243 20.1915L14.8954 23.7789" stroke="white" stroke-width="2" stroke-linecap="round" stroke-linejoin="round"/>
</svg>
