<svg width="176" height="49" viewBox="0 0 176 49" fill="none" xmlns="http://www.w3.org/2000/svg">
<path d="M8.96461 17.1295L7.49466 15.3684C7.08788 15.4701 6.67185 15.5209 6.24658 15.5209C5.34058 15.5209 4.50853 15.3083 3.75044 14.883C2.99235 14.4577 2.39142 13.8707 1.94766 13.1218C1.5039 12.3637 1.28202 11.5086 1.28202 10.5563C1.28202 9.61335 1.5039 8.76743 1.94766 8.01859C2.39142 7.2605 2.99235 6.66882 3.75044 6.24355C4.50853 5.81828 5.34058 5.60565 6.24658 5.60565C7.16184 5.60565 7.99389 5.81828 8.74273 6.24355C9.50082 6.66882 10.0971 7.2605 10.5316 8.01859C10.9754 8.76743 11.1973 9.61335 11.1973 10.5563C11.1973 11.4161 11.0124 12.2019 10.6426 12.9138C10.282 13.6164 9.78742 14.1896 9.15876 14.6334L11.3776 17.1295H8.96461ZM3.27894 10.5563C3.27894 11.2035 3.40375 11.7721 3.65336 12.262C3.90298 12.752 4.24967 13.1311 4.69343 13.3992C5.14643 13.658 5.66415 13.7875 6.24658 13.7875C6.82902 13.7875 7.34212 13.658 7.78588 13.3992C8.22964 13.1311 8.57632 12.752 8.82594 12.262C9.07555 11.7721 9.20036 11.2035 9.20036 10.5563C9.20036 9.90919 9.07555 9.34525 8.82594 8.86451C8.57632 8.37452 8.22964 8.0001 7.78588 7.74124C7.34212 7.48238 6.82902 7.35295 6.24658 7.35295C5.66415 7.35295 5.14643 7.48238 4.69343 7.74124C4.24967 8.0001 3.90298 8.37452 3.65336 8.86451C3.40375 9.34525 3.27894 9.90919 3.27894 10.5563ZM19.9214 7.74124V15.4238H17.9661V14.4531C17.7165 14.7859 17.3883 15.0494 16.9815 15.2436C16.584 15.4285 16.1495 15.5209 15.678 15.5209C15.0771 15.5209 14.5455 15.3961 14.0832 15.1465C13.621 14.8876 13.2558 14.5132 12.9877 14.0232C12.7288 13.524 12.5994 12.9323 12.5994 12.2482V7.74124H14.5409V11.9708C14.5409 12.581 14.6934 13.0525 14.9985 13.3853C15.3036 13.7089 15.7196 13.8707 16.2466 13.8707C16.7828 13.8707 17.2034 13.7089 17.5085 13.3853C17.8136 13.0525 17.9661 12.581 17.9661 11.9708V7.74124H19.9214ZM21.3378 11.5548C21.3378 10.7782 21.4903 10.0895 21.7954 9.48854C22.1097 8.88762 22.5304 8.42537 23.0573 8.10179C23.5935 7.77822 24.1898 7.61643 24.8462 7.61643C25.4194 7.61643 25.9187 7.73199 26.3439 7.96312C26.7784 8.19424 27.1251 8.48546 27.384 8.83677V7.74124H29.3393V15.4238H27.384V14.3006C27.1344 14.6611 26.7877 14.9616 26.3439 15.2019C25.9094 15.4331 25.4056 15.5486 24.8324 15.5486C24.1852 15.5486 23.5935 15.3822 23.0573 15.0494C22.5304 14.7166 22.1097 14.2497 21.7954 13.6488C21.4903 13.0386 21.3378 12.3406 21.3378 11.5548ZM27.384 11.5825C27.384 11.111 27.2915 10.7089 27.1066 10.3761C26.9217 10.034 26.6721 9.77514 26.3578 9.59948C26.0435 9.41458 25.706 9.32213 25.3455 9.32213C24.9849 9.32213 24.6521 9.40996 24.347 9.58562C24.0419 9.76127 23.7923 10.0201 23.5982 10.3622C23.4133 10.695 23.3208 11.0925 23.3208 11.5548C23.3208 12.017 23.4133 12.4238 23.5982 12.7751C23.7923 13.1172 24.0419 13.3807 24.347 13.5656C24.6613 13.7505 24.9942 13.8429 25.3455 13.8429C25.706 13.8429 26.0435 13.7551 26.3578 13.5795C26.6721 13.3946 26.9217 13.1357 27.1066 12.8029C27.2915 12.4608 27.384 12.054 27.384 11.5825ZM33.1769 5.16189V15.4238H31.2355V5.16189H33.1769ZM36.0797 6.82599C35.7376 6.82599 35.451 6.71967 35.2199 6.50703C34.998 6.28515 34.8871 6.01243 34.8871 5.68885C34.8871 5.36528 34.998 5.09717 35.2199 4.88454C35.451 4.66266 35.7376 4.55172 36.0797 4.55172C36.4217 4.55172 36.7037 4.66266 36.9256 4.88454C37.1567 5.09717 37.2723 5.36528 37.2723 5.68885C37.2723 6.01243 37.1567 6.28515 36.9256 6.50703C36.7037 6.71967 36.4217 6.82599 36.0797 6.82599ZM37.0365 7.74124V15.4238H35.0951V7.74124H37.0365ZM41.2151 9.336V13.0525C41.2151 13.3113 41.2752 13.5009 41.3954 13.6211C41.5248 13.732 41.7374 13.7875 42.0333 13.7875H42.9346V15.4238H41.7143C40.0779 15.4238 39.2598 14.6288 39.2598 13.0386V9.336H38.3445V7.74124H39.2598V5.84139H41.2151V7.74124H42.9346V9.336H41.2151ZM51.6808 7.74124L46.9243 19.0571H44.858L46.5221 15.2297L43.4435 7.74124H45.6207L47.6038 13.108L49.6146 7.74124H51.6808ZM61.967 13.5795H58.1119L57.474 15.4238H55.4354L58.9162 5.73045H61.1766L64.6573 15.4238H62.6049L61.967 13.5795ZM61.4401 12.0263L60.0394 7.97699L58.6388 12.0263H61.4401ZM68.8983 15.5486C68.2696 15.5486 67.7057 15.4377 67.2064 15.2158C66.7072 14.9847 66.3097 14.675 66.0138 14.2867C65.7272 13.8984 65.5701 13.4685 65.5423 12.997H67.4977C67.5346 13.2929 67.6779 13.5378 67.9275 13.732C68.1864 13.9261 68.5054 14.0232 68.8844 14.0232C69.2542 14.0232 69.5408 13.9493 69.7442 13.8013C69.9568 13.6534 70.0631 13.4639 70.0631 13.2328C70.0631 12.9832 69.9337 12.7983 69.6748 12.6781C69.4252 12.5486 69.0231 12.41 68.4684 12.262C67.8952 12.1234 67.4237 11.9801 67.0539 11.8321C66.6933 11.6842 66.379 11.4577 66.1109 11.1526C65.852 10.8476 65.7226 10.4362 65.7226 9.91844C65.7226 9.49317 65.8428 9.10488 66.0832 8.75357C66.3328 8.40226 66.6841 8.12491 67.1371 7.92152C67.5993 7.71813 68.1402 7.61643 68.7596 7.61643C69.6748 7.61643 70.4052 7.84756 70.9507 8.30981C71.4961 8.76281 71.7966 9.3776 71.852 10.1542H69.9938C69.9661 9.8491 69.8366 9.60873 69.6055 9.43307C69.3836 9.24817 69.0832 9.15572 68.7041 9.15572C68.3528 9.15572 68.0801 9.22044 67.8859 9.34987C67.701 9.4793 67.6086 9.65958 67.6086 9.8907C67.6086 10.1496 67.738 10.3483 67.9969 10.487C68.2557 10.6164 68.6579 10.7505 69.2034 10.8892C69.7581 11.0278 70.2157 11.1711 70.5762 11.3191C70.9368 11.467 71.2465 11.6981 71.5054 12.0124C71.7735 12.3175 71.9121 12.7243 71.9214 13.2328C71.9214 13.6765 71.7966 14.0741 71.547 14.4254C71.3066 14.7767 70.9553 15.054 70.493 15.2574C70.04 15.4516 69.5084 15.5486 68.8983 15.5486ZM76.455 15.5486C75.8263 15.5486 75.2624 15.4377 74.7631 15.2158C74.2639 14.9847 73.8664 14.675 73.5705 14.2867C73.2839 13.8984 73.1268 13.4685 73.099 12.997H75.0544C75.0913 13.2929 75.2346 13.5378 75.4842 13.732C75.7431 13.9261 76.0621 14.0232 76.4411 14.0232C76.8109 14.0232 77.0975 13.9493 77.3009 13.8013C77.5135 13.6534 77.6198 13.4639 77.6198 13.2328C77.6198 12.9832 77.4904 12.7983 77.2315 12.6781C76.9819 12.5486 76.5798 12.41 76.0251 12.262C75.4519 12.1234 74.9804 11.9801 74.6106 11.8321C74.25 11.6842 73.9357 11.4577 73.6676 11.1526C73.4087 10.8476 73.2793 10.4362 73.2793 9.91844C73.2793 9.49317 73.3995 9.10488 73.6399 8.75357C73.8895 8.40226 74.2408 8.12491 74.6938 7.92152C75.156 7.71813 75.6969 7.61643 76.3163 7.61643C77.2315 7.61643 77.9619 7.84756 78.5074 8.30981C79.0528 8.76281 79.3533 9.3776 79.4087 10.1542H77.5505C77.5228 9.8491 77.3933 9.60873 77.1622 9.43307C76.9403 9.24817 76.6399 9.15572 76.2608 9.15572C75.9095 9.15572 75.6368 9.22044 75.4426 9.34987C75.2577 9.4793 75.1653 9.65958 75.1653 9.8907C75.1653 10.1496 75.2947 10.3483 75.5536 10.487C75.8124 10.6164 76.2146 10.7505 76.7601 10.8892C77.3148 11.0278 77.7724 11.1711 78.1329 11.3191C78.4935 11.467 78.8032 11.6981 79.0621 12.0124C79.3302 12.3175 79.4688 12.7243 79.4781 13.2328C79.4781 13.6765 79.3533 14.0741 79.1037 14.4254C78.8633 14.7767 78.512 15.054 78.0497 15.2574C77.5967 15.4516 77.0651 15.5486 76.455 15.5486ZM88.3245 7.74124V15.4238H86.3691V14.4531C86.1195 14.7859 85.7913 15.0494 85.3845 15.2436C84.987 15.4285 84.5525 15.5209 84.081 15.5209C83.4801 15.5209 82.9485 15.3961 82.4862 15.1465C82.024 14.8876 81.6588 14.5132 81.3907 14.0232C81.1318 13.524 81.0024 12.9323 81.0024 12.2482V7.74124H82.9439V11.9708C82.9439 12.581 83.0964 13.0525 83.4015 13.3853C83.7066 13.7089 84.1226 13.8707 84.6496 13.8707C85.1858 13.8707 85.6064 13.7089 85.9115 13.3853C86.2166 13.0525 86.3691 12.581 86.3691 11.9708V7.74124H88.3245ZM92.1815 8.93384C92.4311 8.52706 92.7546 8.20811 93.1522 7.97699C93.559 7.74586 94.0212 7.6303 94.5389 7.6303V9.66882H94.0258C93.4157 9.66882 92.9534 9.81212 92.6391 10.0987C92.334 10.3853 92.1815 10.8845 92.1815 11.5964V15.4238H90.24V7.74124H92.1815V8.93384ZM95.3474 11.5548C95.3474 10.7782 95.4999 10.0895 95.805 9.48854C96.1193 8.88762 96.54 8.42537 97.0669 8.10179C97.6031 7.77822 98.1994 7.61643 98.8558 7.61643C99.429 7.61643 99.9283 7.73199 100.354 7.96312C100.788 8.19424 101.135 8.48546 101.394 8.83677V7.74124H103.349V15.4238H101.394V14.3006C101.144 14.6611 100.797 14.9616 100.354 15.2019C99.919 15.4331 99.4152 15.5486 98.842 15.5486C98.1948 15.5486 97.6031 15.3822 97.0669 15.0494C96.54 14.7166 96.1193 14.2497 95.805 13.6488C95.4999 13.0386 95.3474 12.3406 95.3474 11.5548ZM101.394 11.5825C101.394 11.111 101.301 10.7089 101.116 10.3761C100.931 10.034 100.682 9.77514 100.367 9.59948C100.053 9.41458 99.7156 9.32213 99.3551 9.32213C98.9945 9.32213 98.6617 9.40996 98.3566 9.58562C98.0515 9.76127 97.8019 10.0201 97.6078 10.3622C97.4229 10.695 97.3304 11.0925 97.3304 11.5548C97.3304 12.017 97.4229 12.4238 97.6078 12.7751C97.8019 13.1172 98.0515 13.3807 98.3566 13.5656C98.6709 13.7505 99.0038 13.8429 99.3551 13.8429C99.7156 13.8429 100.053 13.7551 100.367 13.5795C100.682 13.3946 100.931 13.1357 101.116 12.8029C101.301 12.4608 101.394 12.054 101.394 11.5825ZM109.502 7.6303C110.418 7.6303 111.157 7.92152 111.721 8.50395C112.285 9.07714 112.567 9.88146 112.567 10.9169V15.4238H110.626V11.1804C110.626 10.5702 110.473 10.1033 110.168 9.77976C109.863 9.44694 109.447 9.28053 108.92 9.28053C108.384 9.28053 107.958 9.44694 107.644 9.77976C107.339 10.1033 107.187 10.5702 107.187 11.1804V15.4238H105.245V7.74124H107.187V8.6981C107.445 8.36528 107.774 8.10642 108.171 7.92152C108.578 7.72737 109.022 7.6303 109.502 7.6303ZM113.914 11.5825C113.914 10.7875 114.076 10.0941 114.399 9.50241C114.723 8.90149 115.171 8.43924 115.745 8.11566C116.318 7.78284 116.974 7.61643 117.714 7.61643C118.666 7.61643 119.452 7.8568 120.071 8.33754C120.7 8.80904 121.121 9.47468 121.333 10.3345H119.239C119.128 10.0016 118.939 9.74278 118.671 9.55788C118.412 9.36374 118.088 9.26666 117.7 9.26666C117.145 9.26666 116.706 9.47005 116.382 9.87683C116.059 10.2744 115.897 10.8429 115.897 11.5825C115.897 12.3129 116.059 12.8815 116.382 13.2882C116.706 13.6858 117.145 13.8845 117.7 13.8845C118.486 13.8845 118.999 13.5332 119.239 12.8306H121.333C121.121 13.6627 120.7 14.3237 120.071 14.8137C119.443 15.3036 118.657 15.5486 117.714 15.5486C116.974 15.5486 116.318 15.3868 115.745 15.0633C115.171 14.7305 114.723 14.2682 114.399 13.6765C114.076 13.0756 113.914 12.3776 113.914 11.5825ZM129.897 11.4161C129.897 11.6935 129.879 11.9431 129.842 12.165H124.225C124.272 12.7197 124.466 13.1542 124.808 13.4685C125.15 13.7828 125.571 13.94 126.07 13.94C126.791 13.94 127.304 13.6303 127.609 13.0109H129.703C129.481 13.7505 129.056 14.3607 128.427 14.8414C127.799 15.3129 127.027 15.5486 126.111 15.5486C125.372 15.5486 124.706 15.3868 124.114 15.0633C123.532 14.7305 123.074 14.2636 122.742 13.6627C122.418 13.0617 122.256 12.3684 122.256 11.5825C122.256 10.7875 122.418 10.0895 122.742 9.48854C123.065 8.88762 123.518 8.42537 124.101 8.10179C124.683 7.77822 125.353 7.61643 126.111 7.61643C126.842 7.61643 127.494 7.7736 128.067 8.08793C128.649 8.40226 129.098 8.85064 129.412 9.43307C129.735 10.0063 129.897 10.6673 129.897 11.4161ZM127.886 10.8614C127.877 10.3622 127.697 9.96466 127.346 9.66882C126.994 9.36374 126.564 9.21119 126.056 9.21119C125.575 9.21119 125.168 9.35911 124.836 9.65495C124.512 9.94155 124.313 10.3437 124.239 10.8614H127.886Z" fill="#909090"/>
<path d="M16.1381 44.8585H5.32122C5.03152 44.8585 4.79666 44.6237 4.79666 44.3339V35.7661C4.79666 35.4764 5.03152 35.2415 5.32122 35.2415H7.74088C8.35508 35.2415 8.92424 34.9192 9.24024 34.3926L11.6099 30.4432C12.1212 29.591 13.3255 29.51 13.9464 30.286C14.239 30.6518 14.3333 31.138 14.1987 31.5867L13.3048 34.5662C13.2038 34.9028 13.4559 35.2415 13.8073 35.2415H17.8071C18.9601 35.2415 19.7974 36.3378 19.4941 37.4501L17.825 43.57C17.6175 44.3308 16.9266 44.8585 16.1381 44.8585Z" stroke="#6D2E93" stroke-width="1.4" stroke-linecap="round"/>
<path d="M7.85663 44.8585V35.2415" stroke="#6D2E93" stroke-width="1.4" stroke-linecap="round" stroke-linejoin="round"/>
<path d="M26.3098 37.7474C26.3098 36.8044 26.527 35.9585 26.9615 35.2097C27.4053 34.4608 28.0016 33.8784 28.7504 33.4624C29.5085 33.0371 30.336 32.8244 31.2327 32.8244C32.2589 32.8244 33.1695 33.0787 33.9646 33.5872C34.7689 34.0864 35.3514 34.7983 35.7119 35.7228H33.8121C33.5625 35.2143 33.2158 34.8352 32.772 34.5856C32.3282 34.336 31.8152 34.2112 31.2327 34.2112C30.5948 34.2112 30.0262 34.3545 29.527 34.6411C29.0278 34.9277 28.6349 35.3391 28.3483 35.8753C28.0709 36.4115 27.9323 37.0355 27.9323 37.7474C27.9323 38.4593 28.0709 39.0833 28.3483 39.6195C28.6349 40.1557 29.0278 40.5717 29.527 40.8676C30.0262 41.1542 30.5948 41.2975 31.2327 41.2975C31.8152 41.2975 32.3282 41.1727 32.772 40.9231C33.2158 40.6734 33.5625 40.2944 33.8121 39.7859H35.7119C35.3514 40.7104 34.7689 41.4223 33.9646 41.9215C33.1695 42.4207 32.2589 42.6704 31.2327 42.6704C30.3267 42.6704 29.4993 42.4624 28.7504 42.0463C28.0016 41.6211 27.4053 41.034 26.9615 40.2852C26.527 39.5363 26.3098 38.6904 26.3098 37.7474ZM40.8767 42.712C40.1556 42.712 39.5038 42.5502 38.9214 42.2266C38.3389 41.8938 37.8813 41.4315 37.5485 40.8399C37.2157 40.2389 37.0493 39.5456 37.0493 38.7597C37.0493 37.9832 37.2203 37.2944 37.5624 36.6935C37.9044 36.0926 38.3713 35.6303 38.963 35.3067C39.5547 34.9832 40.2157 34.8214 40.946 34.8214C41.6764 34.8214 42.3374 34.9832 42.9291 35.3067C43.5208 35.6303 43.9876 36.0926 44.3297 36.6935C44.6718 37.2944 44.8428 37.9832 44.8428 38.7597C44.8428 39.5363 44.6671 40.2251 44.3158 40.826C43.9645 41.4269 43.4838 41.8938 42.8736 42.2266C42.2727 42.5502 41.607 42.712 40.8767 42.712ZM40.8767 41.3391C41.2835 41.3391 41.6625 41.242 42.0138 41.0479C42.3744 40.8537 42.6656 40.5625 42.8875 40.1742C43.1094 39.7859 43.2203 39.3144 43.2203 38.7597C43.2203 38.205 43.114 37.7382 42.9013 37.3591C42.6887 36.9708 42.4067 36.6796 42.0554 36.4855C41.7041 36.2913 41.3251 36.1942 40.9183 36.1942C40.5115 36.1942 40.1325 36.2913 39.7812 36.4855C39.4391 36.6796 39.1664 36.9708 38.963 37.3591C38.7596 37.7382 38.6579 38.205 38.6579 38.7597C38.6579 39.5825 38.8659 40.2204 39.2819 40.6734C39.7072 41.1172 40.2388 41.3391 40.8767 41.3391ZM47.8062 41.2975H51.2731V42.5872H45.9757V41.2975L49.4564 36.2358H45.9757V34.9462H51.2731V36.2358L47.8062 41.2975ZM59.8113 34.9462L55.1241 46.1788H53.4878L55.0409 42.4624L52.0317 34.9462H53.7928L55.9423 40.7705L58.175 34.9462H59.8113ZM67.7823 42.6842C67.1352 42.6842 66.5527 42.5733 66.035 42.3514C65.5173 42.1203 65.1105 41.7967 64.8147 41.3807C64.5188 40.9647 64.3709 40.4793 64.3709 39.9246H66.0628C66.0997 40.3406 66.2615 40.6827 66.5481 40.9508C66.844 41.2189 67.2554 41.353 67.7823 41.353C68.3278 41.353 68.753 41.2235 69.0581 40.9647C69.3632 40.6966 69.5158 40.3545 69.5158 39.9385C69.5158 39.6149 69.4187 39.3514 69.2245 39.148C69.0396 38.9446 68.8039 38.7875 68.5173 38.6765C68.24 38.5656 67.8517 38.4454 67.3524 38.316C66.7238 38.1496 66.2107 37.9832 65.8131 37.8167C65.4249 37.6411 65.092 37.373 64.8147 37.0124C64.5373 36.6519 64.3987 36.1711 64.3987 35.5702C64.3987 35.0155 64.5373 34.5301 64.8147 34.1141C65.092 33.6981 65.4803 33.3791 65.9796 33.1573C66.4788 32.9354 67.0566 32.8244 67.713 32.8244C68.6467 32.8244 69.4094 33.0602 70.0011 33.5317C70.602 33.9939 70.9349 34.6318 70.9996 35.4454H69.2523C69.2245 35.0941 69.0581 34.7936 68.753 34.544C68.448 34.2944 68.0458 34.1696 67.5466 34.1696C67.0936 34.1696 66.7238 34.2852 66.4372 34.5163C66.1506 34.7474 66.0073 35.0802 66.0073 35.5147C66.0073 35.8106 66.0951 36.0556 66.2708 36.2497C66.4557 36.4346 66.6868 36.5825 66.9641 36.6935C67.2415 36.8044 67.6205 36.9246 68.1013 37.054C68.7392 37.2297 69.2569 37.4053 69.6544 37.581C70.0612 37.7566 70.4033 38.0294 70.6806 38.3992C70.9672 38.7597 71.1105 39.2451 71.1105 39.8553C71.1105 40.3452 70.9765 40.8075 70.7084 41.242C70.4495 41.6765 70.0658 42.0278 69.5574 42.2959C69.0581 42.5548 68.4665 42.6842 67.7823 42.6842ZM79.979 38.5795C79.979 38.866 79.9605 39.1249 79.9235 39.356H74.0853C74.1315 39.9662 74.358 40.4562 74.7648 40.826C75.1716 41.1958 75.6708 41.3807 76.2625 41.3807C77.113 41.3807 77.714 41.0248 78.0653 40.3129H79.771C79.5399 41.0155 79.1192 41.5933 78.509 42.0463C77.9081 42.4901 77.1593 42.712 76.2625 42.712C75.5322 42.712 74.8758 42.5502 74.2933 42.2266C73.7201 41.8938 73.2671 41.4315 72.9343 40.8399C72.6107 40.2389 72.4489 39.5456 72.4489 38.7597C72.4489 37.9739 72.6061 37.2852 72.9204 36.6935C73.244 36.0926 73.6924 35.6303 74.2656 35.3067C74.848 34.9832 75.5137 34.8214 76.2625 34.8214C76.9836 34.8214 77.6261 34.9785 78.1901 35.2929C78.754 35.6072 79.1932 36.0509 79.5075 36.6241C79.8218 37.1881 79.979 37.8399 79.979 38.5795ZM78.3288 38.0802C78.3195 37.4978 78.1115 37.0309 77.7047 36.6796C77.2979 36.3283 76.7941 36.1526 76.1932 36.1526C75.6477 36.1526 75.1808 36.3283 74.7926 36.6796C74.4043 37.0217 74.1731 37.4885 74.0992 38.0802H78.3288ZM81.0078 38.732C81.0078 37.9647 81.165 37.2852 81.4793 36.6935C81.8029 36.1018 82.2374 35.6442 82.7828 35.3206C83.3375 34.9878 83.9477 34.8214 84.6133 34.8214C85.2143 34.8214 85.7366 34.9415 86.1804 35.1819C86.6334 35.413 86.9939 35.7043 87.262 36.0556V34.9462H88.8568V42.5872H87.262V41.45C86.9939 41.8106 86.6287 42.111 86.1665 42.3514C85.7042 42.5918 85.1773 42.712 84.5856 42.712C83.9292 42.712 83.3283 42.5456 82.7828 42.2127C82.2374 41.8707 81.8029 41.3992 81.4793 40.7983C81.165 40.1881 81.0078 39.4993 81.0078 38.732ZM87.262 38.7597C87.262 38.2328 87.1511 37.7751 86.9292 37.3868C86.7166 36.9986 86.4346 36.7027 86.0833 36.4993C85.732 36.2959 85.3529 36.1942 84.9462 36.1942C84.5394 36.1942 84.1603 36.2959 83.809 36.4993C83.4577 36.6935 83.1711 36.9847 82.9492 37.373C82.7366 37.752 82.6303 38.205 82.6303 38.732C82.6303 39.259 82.7366 39.7212 82.9492 40.1187C83.1711 40.5163 83.4577 40.8214 83.809 41.034C84.1696 41.2374 84.5486 41.3391 84.9462 41.3391C85.3529 41.3391 85.732 41.2374 86.0833 41.034C86.4346 40.8306 86.7166 40.5348 86.9292 40.1465C87.1511 39.7489 87.262 39.2867 87.262 38.7597ZM92.7776 36.2358V40.4654C92.7776 40.752 92.8423 40.96 92.9717 41.0895C93.1104 41.2097 93.3415 41.2697 93.6651 41.2697H94.6358V42.5872H93.3878C92.6759 42.5872 92.1305 42.4207 91.7514 42.0879C91.3724 41.7551 91.1828 41.2143 91.1828 40.4654V36.2358H90.2815V34.9462H91.1828V33.0463H92.7776V34.9462H94.6358V36.2358H92.7776ZM96.8972 33.9338C96.6106 33.9338 96.3703 33.8368 96.1761 33.6426C95.982 33.4485 95.8849 33.2081 95.8849 32.9215C95.8849 32.6349 95.982 32.3946 96.1761 32.2004C96.3703 32.0063 96.6106 31.9092 96.8972 31.9092C97.1746 31.9092 97.4103 32.0063 97.6045 32.2004C97.7986 32.3946 97.8957 32.6349 97.8957 32.9215C97.8957 33.2081 97.7986 33.4485 97.6045 33.6426C97.4103 33.8368 97.1746 33.9338 96.8972 33.9338ZM97.6738 34.9462V42.5872H96.0929V34.9462H97.6738ZM103.605 34.8214C104.205 34.8214 104.742 34.9462 105.213 35.1958C105.694 35.4454 106.068 35.8152 106.336 36.3052C106.605 36.7952 106.739 37.3869 106.739 38.0802V42.5872H105.172V38.316C105.172 37.6318 105.001 37.1095 104.658 36.7489C104.316 36.3791 103.85 36.1942 103.258 36.1942C102.666 36.1942 102.195 36.3791 101.843 36.7489C101.501 37.1095 101.33 37.6318 101.33 38.316V42.5872H99.7494V34.9462H101.33V35.8198C101.589 35.5055 101.917 35.2605 102.315 35.0848C102.722 34.9092 103.152 34.8214 103.605 34.8214ZM111.834 34.8214C112.425 34.8214 112.948 34.9415 113.401 35.1819C113.863 35.413 114.224 35.7043 114.482 36.0556V34.9462H116.077V42.712C116.077 43.4146 115.929 44.0386 115.633 44.5841C115.338 45.1388 114.908 45.5733 114.344 45.8876C113.789 46.202 113.123 46.3591 112.347 46.3591C111.311 46.3591 110.452 46.1141 109.767 45.6241C109.083 45.1434 108.695 44.487 108.603 43.655H110.17C110.29 44.0525 110.544 44.3714 110.932 44.6118C111.33 44.8614 111.801 44.9862 112.347 44.9862C112.985 44.9862 113.498 44.7921 113.886 44.4038C114.284 44.0155 114.482 43.4516 114.482 42.712V41.4362C114.214 41.7967 113.849 42.1018 113.387 42.3514C112.934 42.5918 112.416 42.712 111.834 42.712C111.168 42.712 110.558 42.5456 110.003 42.2127C109.458 41.8707 109.023 41.3992 108.7 40.7983C108.385 40.1881 108.228 39.4993 108.228 38.732C108.228 37.9647 108.385 37.2852 108.7 36.6935C109.023 36.1018 109.458 35.6442 110.003 35.3206C110.558 34.9878 111.168 34.8214 111.834 34.8214ZM114.482 38.7597C114.482 38.2328 114.371 37.7751 114.15 37.3868C113.937 36.9986 113.655 36.7027 113.304 36.4993C112.952 36.2959 112.573 36.1942 112.167 36.1942C111.76 36.1942 111.381 36.2959 111.029 36.4993C110.678 36.6935 110.391 36.9847 110.17 37.373C109.957 37.752 109.851 38.205 109.851 38.732C109.851 39.259 109.957 39.7212 110.17 40.1187C110.391 40.5163 110.678 40.8214 111.029 41.034C111.39 41.2374 111.769 41.3391 112.167 41.3391C112.573 41.3391 112.952 41.2374 113.304 41.034C113.655 40.8306 113.937 40.5348 114.15 40.1465C114.371 39.7489 114.482 39.2867 114.482 38.7597Z" fill="#999999"/>
</svg>
