<svg width="18" height="17" viewBox="0 0 18 17" fill="none" xmlns="http://www.w3.org/2000/svg">
<path d="M16.5512 8.11475C16.5541 9.23225 16.293 10.3346 15.7892 11.3321C15.1918 12.5274 14.2735 13.5328 13.137 14.2356C12.0005 14.9385 10.6907 15.311 9.35447 15.3115C8.23697 15.3144 7.13458 15.0533 6.1371 14.5495L1.31104 16.1582L2.91972 11.3321C2.41589 10.3346 2.1548 9.23225 2.15771 8.11475C2.15823 6.77849 2.53077 5.46876 3.2336 4.33226C3.93643 3.19577 4.9418 2.27739 6.1371 1.68C7.13458 1.17617 8.23697 0.915079 9.35447 0.917993H9.77781C11.5426 1.01535 13.2094 1.76023 14.4592 3.01001C15.709 4.25979 16.4539 5.92664 16.5512 7.69141V8.11475Z" stroke="white" stroke-width="1.69335" stroke-linecap="round" stroke-linejoin="round"/>
</svg>
